<svg width="24" height="24" viewBox="0 0 24 24" fill="none" xmlns="http://www.w3.org/2000/svg">
<path d="M12 10C11.3672 10.0234 10.8398 10.2461 10.418 10.668C9.99609 11.0898 9.77344 11.6172 9.75 12.25C9.77344 12.8828 9.99609 13.4102 10.418 13.832C10.8398 14.2539 11.3672 14.4766 12 14.5C12.6328 14.4766 13.1602 14.2539 13.582 13.832C14.0039 13.4102 14.2266 12.8828 14.25 12.25C14.2266 11.6172 14.0039 11.0898 13.582 10.668C13.1602 10.2461 12.6328 10.0234 12 10ZM12 3.25C10.3125 3.27344 8.80078 3.68359 7.46484 4.48047C6.10547 5.27734 5.02734 6.35547 4.23047 7.71484C3.43359 9.05078 3.02344 10.5625 3 12.25C3.02344 13.9375 3.43359 15.4492 4.23047 16.7852C5.02734 18.1445 6.10547 19.2227 7.46484 20.0195C8.80078 20.8164 10.3125 21.2266 12 21.25C13.6875 21.2266 15.1992 20.8164 16.5352 20.0195C17.8945 19.2227 18.9727 18.1445 19.7695 16.7852C20.5664 15.4492 20.9766 13.9375 21 12.25C20.9766 10.5625 20.5664 9.05078 19.7695 7.71484C18.9727 6.35547 17.8945 5.27734 16.5352 4.48047C15.1992 3.68359 13.6875 3.27344 12 3.25ZM12 19.5625C9.9375 19.5156 8.21484 18.8008 6.83203 17.418C5.44922 16.0352 4.73438 14.3125 4.6875 12.25C4.73438 10.1875 5.44922 8.46484 6.83203 7.08203C8.21484 5.69922 9.9375 4.98437 12 4.9375C14.0625 4.98437 15.7852 5.69922 17.168 7.08203C18.5508 8.46484 19.2656 10.1875 19.3125 12.25C19.2656 14.3125 18.5508 16.0352 17.168 17.418C15.7852 18.8008 14.0625 19.5156 12 19.5625Z" fill="black"/>
</svg>
