<svg width="101" height="100" viewBox="0 0 101 100" fill="none" xmlns="http://www.w3.org/2000/svg">
<path d="M27.8333 19.7926C27.8333 23.8197 31.0979 27.0843 35.125 27.0843C39.1521 27.0843 42.4166 23.8197 42.4166 19.7926C42.4166 15.7656 39.1521 12.501 35.125 12.501C31.0979 12.501 27.8333 15.7656 27.8333 19.7926Z" fill="black"/>
<path fill-rule="evenodd" clip-rule="evenodd" d="M62.1019 33.4403C61.8013 33.3713 61.4881 33.3348 61.1667 33.3348H42.4167V58.3348H27.8333V33.3348H25.75C18.8464 33.3348 13.25 38.9313 13.25 45.8348C13.25 52.0286 17.7548 57.1703 23.6667 58.1619V83.3348C23.6667 85.6361 25.5321 87.5015 27.8333 87.5015C30.1346 87.5015 32 85.6361 32 83.3348V64.5848H38.25V83.3348C38.25 85.6361 40.1154 87.5015 42.4167 87.5015C44.7179 87.5015 46.5833 85.6361 46.5833 83.3348V41.6682H61.1667C62.1596 41.6682 63.0715 41.3209 63.7873 40.7409L67.95 58.7713C63.4656 59.8067 60.6696 64.2813 61.7048 68.7657L63.8929 87.5038L69.7756 86.1457L67.6302 75.9067L71.7083 75.0523L73.8365 85.2082L88.2521 81.88L82.0042 64.0792C80.969 59.5948 76.4944 56.7988 72.01 57.834L64.0429 23.325C63.784 22.204 62.6654 21.505 61.5444 21.7638C60.4231 22.0225 59.7242 23.1413 59.9829 24.2623L62.1019 33.4403ZM19.5 45.8348C19.5 43.5336 21.3655 41.6682 23.6667 41.6682V50.0015C21.3655 50.0015 19.5 48.1361 19.5 45.8348ZM72.9473 61.894L68.8873 62.8313C66.6452 63.3488 65.2471 65.5863 65.7648 67.8284L77.9444 65.0165C77.4267 62.7742 75.1894 61.3763 72.9473 61.894Z" fill="black"/>
<path d="M38.25 33.334V39.584H32V33.334H38.25Z" fill="black"/>
</svg>
