<svg width="24" height="24" viewBox="0 0 24 24" fill="none" xmlns="http://www.w3.org/2000/svg">
<path d="M12 8.40625C10.9792 8.42708 10.1354 8.78125 9.46875 9.46875C8.78125 10.1354 8.42708 10.9792 8.40625 12C8.42708 13.0208 8.78125 13.8646 9.46875 14.5312C10.1354 15.2188 10.9792 15.5729 12 15.5938C13.0208 15.5729 13.8646 15.2188 14.5312 14.5312C15.2188 13.8646 15.5729 13.0208 15.5938 12C15.5729 10.9792 15.2188 10.1354 14.5312 9.46875C13.8646 8.78125 13.0208 8.42708 12 8.40625ZM12 14.3438C11.3333 14.3229 10.7812 14.0938 10.3438 13.6562C9.90625 13.2188 9.67708 12.6667 9.65625 12C9.67708 11.3333 9.90625 10.7812 10.3438 10.3438C10.7812 9.90625 11.3333 9.67708 12 9.65625C12.6667 9.67708 13.2188 9.90625 13.6562 10.3438C14.0938 10.7812 14.3229 11.3333 14.3438 12C14.3229 12.6667 14.0938 13.2188 13.6562 13.6562C13.2188 14.0938 12.6667 14.3229 12 14.3438ZM16.5938 8.25C16.5312 8.77083 16.25 9.05208 15.75 9.09375C15.2292 9.05208 14.9479 8.77083 14.9062 8.25C14.9062 8.02083 14.9896 7.82292 15.1562 7.65625C15.3021 7.51042 15.5 7.4375 15.75 7.4375C15.9792 7.4375 16.1771 7.51042 16.3438 7.65625C16.4896 7.82292 16.5729 8.02083 16.5938 8.25ZM18.9688 9.125C18.9688 7.97917 18.5833 7 17.8125 6.1875C17 5.41667 16.0312 5.03125 14.9062 5.03125C14.4896 5.01042 13.8958 5 13.125 5C12.375 5 11.625 5 10.875 5C10.1042 5 9.52083 5.01042 9.125 5.03125C8 5.03125 7.02083 5.41667 6.1875 6.1875C5.41667 7 5.04167 7.96875 5.0625 9.09375C5.02083 9.51042 5 10.1042 5 10.875C5 11.625 5 12.375 5 13.125C5 13.875 5.02083 14.4583 5.0625 14.875C5.04167 16.0208 5.41667 17 6.1875 17.8125C7 18.5833 7.97917 18.9583 9.125 18.9375C9.52083 18.9583 10.1042 18.9792 10.875 19C11.625 19 12.375 19 13.125 19C13.8958 18.9792 14.4896 18.9583 14.9062 18.9375C16.0312 18.9583 17 18.5833 17.8125 17.8125C18.5833 17 18.9688 16.0208 18.9688 14.875C18.9896 14.4583 19 13.875 19 13.125C19 12.375 19 11.625 19 10.875C19 10.1042 18.9896 9.51042 18.9688 9.09375V9.125ZM17.4688 16.125C17.1979 16.75 16.75 17.1979 16.125 17.4688C15.7083 17.6146 15.1458 17.6979 14.4375 17.7188C13.7292 17.7396 13.0833 17.75 12.5 17.75C12.3125 17.75 12.1458 17.75 12 17.75C11.8542 17.75 11.6875 17.75 11.5 17.75C10.9167 17.75 10.2708 17.7396 9.5625 17.7188C8.875 17.6979 8.3125 17.6146 7.875 17.4688C7.25 17.1979 6.80208 16.75 6.53125 16.125C6.38542 15.6875 6.30208 15.125 6.28125 14.4375C6.26042 13.7292 6.25 13.0833 6.25 12.5C6.25 12.3125 6.25 12.1458 6.25 12C6.25 11.8542 6.25 11.6875 6.25 11.5C6.25 10.9167 6.26042 10.2708 6.28125 9.5625C6.30208 8.85417 6.38542 8.29167 6.53125 7.875C6.80208 7.25 7.25 6.80208 7.875 6.53125C8.3125 6.38542 8.875 6.30208 9.5625 6.28125C10.2708 6.23958 10.9167 6.22917 11.5 6.25C11.6875 6.25 11.8542 6.25 12 6.25C12.1458 6.25 12.3125 6.25 12.5 6.25C13.0833 6.25 13.7292 6.26042 14.4375 6.28125C15.1458 6.30208 15.7083 6.38542 16.125 6.53125C16.75 6.80208 17.1979 7.25 17.4688 7.875C17.6146 8.29167 17.6979 8.85417 17.7188 9.5625C17.7604 10.2708 17.7708 10.9167 17.75 11.5C17.75 11.6875 17.75 11.8542 17.75 12C17.75 12.1458 17.75 12.3125 17.75 12.5C17.7708 13.0833 17.7604 13.7292 17.7188 14.4375C17.6979 15.1458 17.6146 15.7083 17.4688 16.125Z" fill="white"/>
</svg>
