<svg width="101" height="100" viewBox="0 0 101 100" fill="none" xmlns="http://www.w3.org/2000/svg">
<path d="M56.9871 12.5059C51.0629 12.5059 45.4974 14.1477 40.7703 17.0224C40.0607 17.4539 39.5516 18.1496 39.3549 18.9564C39.1581 19.7633 39.2899 20.6152 39.7212 21.3249C40.1525 22.0346 40.8481 22.5439 41.6549 22.7408C42.4616 22.9378 43.3136 22.8062 44.0234 22.3751C47.805 20.0754 52.2248 18.7558 56.9871 18.7558C70.8311 18.7558 81.9929 29.9176 81.9929 43.7616C81.9929 48.827 80.4929 53.5071 77.9158 57.4394C77.6698 57.7824 77.4959 58.1717 77.4044 58.5837C77.313 58.9958 77.3059 59.4221 77.3837 59.8369C77.4615 60.2518 77.6225 60.6466 77.857 60.9975C78.0915 61.3484 78.3946 61.6483 78.7481 61.8789C79.1017 62.1094 79.4982 62.2661 79.9139 62.3392C80.3296 62.4124 80.7558 62.4006 81.1668 62.3046C81.5778 62.2085 81.9651 62.0303 82.3054 61.7805C82.6456 61.5307 82.9317 61.2146 83.1465 60.8512C86.3668 55.9374 88.249 50.0628 88.249 43.7616C88.249 26.5399 74.2088 12.5059 56.9871 12.5059ZM56.9444 21.8197C56.5335 21.8269 56.128 21.9151 55.7513 22.0791C55.3745 22.2432 55.0337 22.48 54.7486 22.7759C54.4634 23.0719 54.2394 23.4211 54.0894 23.8038C53.9394 24.1864 53.8663 24.5948 53.8744 25.0057V28.1185C53.875 28.2738 53.8873 28.4288 53.911 28.5823C52.7768 28.9281 51.6835 29.471 50.7128 30.2669C48.8817 31.7681 47.6244 34.2533 47.6244 37.0234C47.6244 39.6741 49.019 41.9262 50.6029 43.3466C52.1869 44.7669 53.9525 45.6668 55.5162 46.5081C57.0799 47.3495 58.441 48.1262 59.2027 48.8091C59.9643 49.4921 60.1304 49.7607 60.1304 50.4754C60.1304 51.5514 59.8332 51.9639 59.3186 52.3858C58.8041 52.8076 57.9104 53.1243 56.9871 53.1243C56.0639 53.1243 55.2007 52.8076 54.6861 52.3858C54.1716 51.9639 53.85 51.5514 53.85 50.4754C53.8888 50.0431 53.8371 49.6076 53.6983 49.1964C53.5595 48.7852 53.3366 48.4074 53.0438 48.0871C52.751 47.7669 52.3946 47.511 51.9975 47.336C51.6004 47.161 51.1712 47.0707 50.7372 47.0707C50.3032 47.0707 49.874 47.161 49.4769 47.336C49.0798 47.511 48.7234 47.7669 48.4306 48.0871C48.1378 48.4074 47.9149 48.7852 47.7761 49.1964C47.6373 49.6076 47.5856 50.0431 47.6244 50.4754C47.6244 53.2455 48.8817 55.7307 50.7128 57.2319C51.6815 58.0261 52.7733 58.5644 53.9049 58.9103C53.8829 59.066 53.8727 59.2231 53.8744 59.3803V62.4931C53.8744 63.3227 54.2039 64.1183 54.7905 64.7049C55.3772 65.2915 56.1728 65.6211 57.0024 65.6211C57.832 65.6211 58.6276 65.2915 59.2142 64.7049C59.8008 64.1183 60.1304 63.3227 60.1304 62.4931V59.3803C60.13 59.2229 60.1178 59.0658 60.0938 58.9103C61.2192 58.564 62.3037 58.0221 63.2676 57.2319C65.0986 55.7307 66.3803 53.2455 66.3803 50.4754C66.3803 47.8247 64.9614 45.5726 63.3774 44.1522C61.7935 42.7318 60.0279 41.832 58.4642 40.9906C56.9004 40.1493 55.5393 39.3665 54.7777 38.6835C54.016 38.0006 53.85 37.738 53.85 37.0234C53.85 35.9474 54.1716 35.5288 54.6861 35.1069C55.2007 34.685 56.0639 34.3684 56.9871 34.3684C57.9104 34.3684 58.8041 34.685 59.3186 35.1069C59.8332 35.5288 60.1304 35.9474 60.1304 37.0234C60.1212 37.4396 60.1952 37.8535 60.3481 38.2407C60.501 38.6279 60.7297 38.9807 61.0208 39.2783C61.3119 39.5759 61.6595 39.8124 62.0432 39.9738C62.4269 40.1353 62.839 40.2184 63.2554 40.2184C63.6717 40.2184 64.0838 40.1353 64.4675 39.9738C64.8512 39.8124 65.1989 39.5759 65.49 39.2783C65.781 38.9807 66.0098 38.6279 66.1627 38.2407C66.3155 37.8535 66.3895 37.4396 66.3803 37.0234C66.3803 34.2533 65.0986 31.7681 63.2676 30.2669C62.3021 29.4753 61.2152 28.9346 60.0877 28.5884C60.1137 28.4331 60.128 28.276 60.1304 28.1185V25.0057C60.1387 24.5851 60.0619 24.1671 59.9047 23.7768C59.7475 23.3865 59.5131 23.032 59.2156 22.7345C58.9181 22.437 58.5636 22.2026 58.1733 22.0454C57.7831 21.8882 57.3651 21.8115 56.9444 21.8197ZM33.4156 25.1217C32.9102 25.1422 32.4173 25.2852 31.9794 25.5382C31.5414 25.7912 31.1713 26.1467 30.901 26.5743C27.6496 31.5037 25.7558 37.4274 25.7558 43.7616C25.7558 48.963 27.0553 53.8596 29.3141 58.1779L15.9781 71.5139C12.3441 75.1479 12.3441 81.1366 15.9781 84.7706C19.6121 88.4046 25.6008 88.4046 29.2348 84.7706L42.5647 71.4407C46.8843 73.7012 51.7836 74.9929 56.9871 74.9929C63.2048 74.9929 69.0258 73.1794 73.8998 70.0369C74.2593 69.8223 74.572 69.5377 74.8194 69.1999C75.0668 68.8621 75.2438 68.478 75.3399 68.0705C75.436 67.663 75.4492 67.2403 75.3788 66.8276C75.3083 66.4149 75.1557 66.0205 74.9299 65.6679C74.7041 65.3153 74.4098 65.0117 74.0644 64.775C73.719 64.5384 73.3295 64.3736 72.9192 64.2904C72.5089 64.2072 72.086 64.2072 71.6757 64.2906C71.2654 64.374 70.876 64.539 70.5307 64.7757C66.6305 67.2903 61.9854 68.743 56.9871 68.743C43.1432 68.743 31.9813 57.6056 31.9813 43.7616C31.9813 38.6697 33.5114 33.9554 36.1134 30.0105C36.4406 29.5327 36.6286 28.9734 36.6564 28.395C36.6843 27.8166 36.5509 27.2418 36.2711 26.7347C35.9913 26.2277 35.5761 25.8084 35.0719 25.5236C34.5677 25.2387 33.9943 25.0996 33.4156 25.1217ZM32.8175 63.5123C34.1404 65.1283 35.6204 66.6083 37.2364 67.9312L24.8159 80.3517C23.5532 81.6144 21.6597 81.6144 20.397 80.3517C19.1343 79.0891 19.1343 77.1955 20.397 75.9328L32.8175 63.5123Z" fill="black"/>
</svg>
