<svg width="100" height="100" viewBox="0 0 100 100" fill="none" xmlns="http://www.w3.org/2000/svg">
<path d="M56.2371 12.5059C50.3129 12.5059 44.7474 14.1477 40.0203 17.0224C39.3107 17.4539 38.8016 18.1496 38.6049 18.9564C38.4082 19.7633 38.5399 20.6152 38.9713 21.3249C39.4026 22.0346 40.0981 22.5439 40.9049 22.7408C41.7117 22.9378 42.5636 22.8062 43.2734 22.3751C47.0551 20.0754 51.4749 18.7558 56.2371 18.7558C70.0811 18.7558 81.243 29.9176 81.243 43.7616C81.243 48.827 79.743 53.5071 77.1659 57.4394C76.9199 57.7824 76.7459 58.1717 76.6544 58.5837C76.563 58.9958 76.5559 59.4221 76.6337 59.8369C76.7115 60.2518 76.8725 60.6466 77.107 60.9975C77.3415 61.3484 77.6446 61.6483 77.9982 61.8789C78.3517 62.1094 78.7483 62.266 79.1639 62.3392C79.5796 62.4124 80.0058 62.4006 80.4168 62.3046C80.8279 62.2085 81.2152 62.0303 81.5554 61.7805C81.8956 61.5307 82.1818 61.2146 82.3965 60.8512C85.6169 55.9374 87.499 50.0628 87.499 43.7616C87.499 26.5399 73.4588 12.5059 56.2371 12.5059ZM56.1944 21.8197C55.7835 21.8269 55.3781 21.9151 55.0013 22.0791C54.6245 22.2432 54.2838 22.48 53.9986 22.7759C53.7134 23.0719 53.4894 23.4211 53.3394 23.8038C53.1894 24.1864 53.1163 24.5948 53.1244 25.0057V28.1185C53.1251 28.2738 53.1373 28.4288 53.161 28.5823C52.0268 28.9281 50.9336 29.471 49.9628 30.2669C48.1318 31.7681 46.8745 34.2533 46.8745 37.0234C46.8745 39.6741 48.269 41.9262 49.8529 43.3466C51.4369 44.7669 53.2025 45.6668 54.7662 46.5081C56.33 47.3495 57.6911 48.1262 58.4527 48.8091C59.2143 49.4921 59.3804 49.7607 59.3804 50.4754C59.3804 51.5514 59.0832 51.9639 58.5687 52.3858C58.0541 52.8076 57.1604 53.1243 56.2371 53.1243C55.3139 53.1243 54.4507 52.8076 53.9361 52.3858C53.4216 51.9639 53.1 51.5514 53.1 50.4754C53.1388 50.0431 53.0871 49.6076 52.9483 49.1964C52.8096 48.7852 52.5866 48.4074 52.2938 48.0871C52.001 47.7668 51.6447 47.5111 51.2475 47.336C50.8504 47.161 50.4212 47.0707 49.9872 47.0707C49.5532 47.0707 49.124 47.161 48.7269 47.336C48.3298 47.5111 47.9735 47.7668 47.6806 48.0871C47.3878 48.4074 47.1649 48.7852 47.0261 49.1964C46.8873 49.6076 46.8357 50.0431 46.8745 50.4754C46.8745 53.2455 48.1318 55.7307 49.9628 57.2319C50.9316 58.0261 52.0233 58.5644 53.1549 58.9103C53.1329 59.066 53.1227 59.2231 53.1244 59.3803V62.4931C53.1244 63.3227 53.4539 64.1183 54.0406 64.7049C54.6272 65.2915 55.4228 65.6211 56.2524 65.6211C57.082 65.6211 57.8776 65.2915 58.4643 64.7049C59.0509 64.1183 59.3804 63.3227 59.3804 62.4931V59.3803C59.3801 59.2229 59.3678 59.0658 59.3438 58.9103C60.4692 58.564 61.5537 58.0221 62.5176 57.2319C64.3486 55.7307 65.6303 53.2455 65.6303 50.4754C65.6303 47.8247 64.2114 45.5726 62.6275 44.1522C61.0435 42.7318 59.2779 41.832 57.7142 40.9906C56.1504 40.1493 54.7893 39.3665 54.0277 38.6835C53.2661 38.0006 53.1 37.738 53.1 37.0234C53.1 35.9474 53.4216 35.5288 53.9361 35.1069C54.4507 34.685 55.3139 34.3684 56.2371 34.3684C57.1604 34.3684 58.0541 34.685 58.5687 35.1069C59.0832 35.5288 59.3804 35.9474 59.3804 37.0234C59.3712 37.4396 59.4452 37.8535 59.5981 38.2407C59.751 38.6279 59.9797 38.9807 60.2708 39.2783C60.5619 39.5759 60.9095 39.8124 61.2932 39.9738C61.677 40.1353 62.0891 40.2184 62.5054 40.2184C62.9217 40.2184 63.3338 40.1353 63.7175 39.9738C64.1013 39.8124 64.4489 39.5759 64.74 39.2783C65.0311 38.9807 65.2598 38.6279 65.4127 38.2407C65.5656 37.8535 65.6396 37.4396 65.6303 37.0234C65.6303 34.2533 64.3486 31.7681 62.5176 30.2669C61.5521 29.4753 60.4652 28.9346 59.3377 28.5884C59.3638 28.4331 59.378 28.276 59.3804 28.1185V25.0057C59.3887 24.5851 59.3119 24.1671 59.1547 23.7768C58.9975 23.3865 58.7632 23.032 58.4656 22.7345C58.1681 22.437 57.8136 22.2026 57.4233 22.0454C57.0331 21.8882 56.6151 21.8115 56.1944 21.8197ZM32.6657 25.1217C32.1602 25.1422 31.6674 25.2852 31.2294 25.5382C30.7914 25.7912 30.4213 26.1467 30.151 26.5743C26.8997 31.5037 25.0058 37.4274 25.0058 43.7616C25.0058 48.963 26.3053 53.8596 28.5641 58.1779L15.2281 71.5139C11.5941 75.1479 11.5941 81.1366 15.2281 84.7706C18.8621 88.4046 24.8508 88.4046 28.4848 84.7706L41.8147 71.4407C46.1343 73.7012 51.0336 74.9929 56.2371 74.9929C62.4549 74.9929 68.2758 73.1794 73.1498 70.0369C73.5093 69.8223 73.8221 69.5377 74.0694 69.1999C74.3168 68.8621 74.4938 68.478 74.5899 68.0705C74.686 67.663 74.6992 67.2403 74.6288 66.8276C74.5584 66.4149 74.4057 66.0205 74.1799 65.6679C73.9541 65.3153 73.6598 65.0117 73.3144 64.775C72.969 64.5384 72.5796 64.3736 72.1692 64.2904C71.7589 64.2072 71.336 64.2072 70.9257 64.2906C70.5154 64.374 70.126 64.539 69.7807 64.7757C65.8805 67.2903 61.2354 68.743 56.2371 68.743C42.3932 68.743 31.2313 57.6056 31.2313 43.7616C31.2313 38.6697 32.7614 33.9554 35.3634 30.0105C35.6906 29.5327 35.8786 28.9734 35.9064 28.395C35.9343 27.8166 35.8009 27.2418 35.5211 26.7347C35.2413 26.2277 34.8262 25.8084 34.322 25.5236C33.8178 25.2387 33.2443 25.0996 32.6657 25.1217ZM32.0675 63.5123C33.3905 65.1283 34.8705 66.6083 36.4864 67.9312L24.0659 80.3517C22.8032 81.6144 20.9097 81.6144 19.647 80.3517C18.3843 79.0891 18.3843 77.1955 19.647 75.9328L32.0675 63.5123Z" fill="white"/>
</svg>
