<svg width="101" height="100" viewBox="0 0 101 100" fill="none" xmlns="http://www.w3.org/2000/svg">
<path d="M44.1667 60.542L35.2917 51.667L30.875 56.0837L44.125 69.3337L69.125 44.3337L64.7083 39.917L44.1667 60.542ZM72.4875 7.54199L91.6833 23.5628L86.35 29.9587L67.1417 13.9462L72.4875 7.54199ZM28.0125 7.54199L33.3542 13.942L14.1542 29.9587L8.82083 23.5587L28.0125 7.54199ZM50.25 16.667C29.5417 16.667 12.75 33.4587 12.75 54.167C12.75 74.8753 29.5417 91.667 50.25 91.667C70.9583 91.667 87.75 74.8753 87.75 54.167C87.75 33.4587 70.9583 16.667 50.25 16.667ZM50.25 83.3337C34.1667 83.3337 21.0833 70.2503 21.0833 54.167C21.0833 38.0837 34.1667 25.0003 50.25 25.0003C66.3333 25.0003 79.4167 38.0837 79.4167 54.167C79.4167 70.2503 66.3333 83.3337 50.25 83.3337Z" fill="black"/>
</svg>
