<svg width="101" height="100" viewBox="0 0 101 100" fill="none" xmlns="http://www.w3.org/2000/svg">
<path d="M33.4015 79.8792C31.3106 80.7125 29.356 79.955 28.4621 79.4398C26.9621 78.5762 25.9318 77.0913 25.6288 75.3944L24.5985 69.5913L14.6439 83.4398C13.7348 84.5004 14.5378 86.9398 16.7348 86.4701L29.053 83.1822L32.3712 95.5004C32.6136 96.7883 34.9621 97.8792 36.0379 95.8034L43.0682 80.2125L40.5985 77.2883L33.4015 79.8792ZM89.2954 83.4398L77.8257 67.5004L75.7348 67.8792L74.3863 75.3944C74.0833 77.1065 73.0378 78.5762 71.5378 79.455C70.6439 79.9701 69.0833 80.6822 66.6136 79.8944L59.5682 77.3489L67.9015 95.8034C68.25 96.9398 70.6742 97.8489 71.5682 95.5004L74.856 83.1822L87.1742 86.4701C89.6742 86.7883 90.053 84.4247 89.2954 83.4398ZM50.0227 22.5762C39.2348 22.5762 30.4469 31.3641 30.4469 42.1519C30.4469 52.9398 39.2348 61.7277 50.0227 61.7277C60.8106 61.7277 69.5985 52.9398 69.5985 42.1519C69.5985 31.3489 60.8106 22.5762 50.0227 22.5762ZM58.1742 53.5459L50.0227 47.6216L41.8712 53.5459L44.9924 43.955L36.8409 38.0307H46.9166L50.0379 28.4398L53.1591 38.0307H63.2348L55.0833 43.955L58.1742 53.5459Z" fill="black"/>
<path d="M70.553 74.6972L72.3712 64.4851L82.5682 62.6669C84.447 62.0457 84.2652 60.6214 84.0682 60.076L80.553 50.3336L88.4773 43.6366C89.7652 42.1517 88.9167 41.0154 88.4773 40.6517L80.553 33.9548L84.0682 24.1972C84.2652 23.6518 84.3712 22.076 82.5682 21.6063L72.3712 19.7881L70.553 9.57599C70.447 9.01539 69.5833 7.54569 67.9621 8.07599L58.2046 11.5911L51.5076 3.6669C50.7652 2.78812 49.2652 2.78812 48.5227 3.6669L41.8258 11.5911L32.0682 8.07599C31.2046 7.74266 29.7652 8.12145 29.4773 9.57599L27.6591 19.7881L17.447 21.6063C15.8409 21.9396 15.6288 23.5154 15.947 24.1972L19.4621 33.9548L11.5379 40.6517C10.3106 41.8639 10.9318 43.1972 11.5379 43.6366L19.4621 50.3184L15.947 60.076C15.75 60.6214 15.5833 62.1669 17.447 62.6669L27.6591 64.4851L29.4773 74.6972C29.947 76.4699 31.5227 76.3942 32.0682 76.1972L41.8258 72.6821L48.5227 80.6063C48.8864 81.0457 50.1288 81.9093 51.5076 80.6063L58.2046 72.6821L67.9621 76.1972C69.8409 76.6366 70.447 75.273 70.553 74.6972ZM50.0227 65.6366C37.0682 65.6366 26.5379 55.1063 26.5379 42.1517C26.5379 29.1972 37.0682 18.6669 50.0227 18.6669C62.9773 18.6669 73.5076 29.1972 73.5076 42.1517C73.5076 55.1063 62.9773 65.6366 50.0227 65.6366Z" fill="black"/>
</svg>
