<svg width="88" height="63" viewBox="0 0 88 63" fill="none" xmlns="http://www.w3.org/2000/svg">
<path d="M18.75 25.25C24.0234 25.4453 28.5156 27.2031 32.0312 30.7188C35.5469 34.2344 37.3047 38.7266 37.5 44C37.3047 49.4688 35.5469 53.7656 32.0312 57.2812C28.5156 60.7969 24.0234 62.75 18.75 62.75C13.2812 62.75 8.98438 60.7969 5.46875 57.2812C1.95312 53.7656 0 49.4688 0 44V25.25C0 18.2188 2.53906 12.3594 7.42188 7.67188C12.1094 2.98438 17.9688 0.445312 25 0.25C26.7578 0.25 28.3203 0.835938 29.4922 2.00781C30.6641 3.17969 31.25 4.74219 31.25 6.5C31.25 8.45312 30.6641 9.82031 29.4922 10.9922C28.3203 12.1641 26.7578 12.75 25 12.75C21.4844 12.9453 18.5547 14.1172 16.2109 16.4609C13.8672 18.8047 12.5 21.7344 12.5 25.25V26.4219C14.4531 25.6406 16.4062 25.25 18.75 25.25ZM68.75 25.25C74.0234 25.4453 78.5156 27.2031 82.0312 30.7188C85.5469 34.2344 87.3047 38.7266 87.5 44C87.3047 49.4688 85.5469 53.7656 82.0312 57.2812C78.5156 60.7969 74.0234 62.75 68.75 62.75C63.2812 62.75 58.9844 60.7969 55.4688 57.2812C51.9531 53.7656 50 49.4688 50 44V25.25C50 18.2188 52.5391 12.3594 57.4219 7.67188C62.1094 2.98438 67.9688 0.445312 75 0.25C76.7578 0.25 78.3203 0.835938 79.4922 2.00781C80.6641 3.17969 81.25 4.74219 81.25 6.5C81.25 8.45312 80.6641 9.82031 79.4922 10.9922C78.3203 12.1641 76.7578 12.75 75 12.75C71.4844 12.9453 68.5547 14.1172 66.2109 16.4609C63.8672 18.8047 62.5 21.7344 62.5 25.25V26.4219C64.4531 25.6406 66.4062 25.25 68.75 25.25Z" fill="black"/>
</svg>
