<svg width="168" height="168" viewBox="0 0 168 168" fill="none" xmlns="http://www.w3.org/2000/svg">
<path d="M131.285 22H147C147.265 22 147.52 21.8946 147.707 21.7071C147.895 21.5196 148 21.2652 148 21C148 20.7348 147.895 20.4804 147.707 20.2929C147.52 20.1054 147.265 20 147 20H131.285C131.02 20 130.765 20.1054 130.578 20.2929C130.39 20.4804 130.285 20.7348 130.285 21C130.285 21.2652 130.39 21.5196 130.578 21.7071C130.765 21.8946 131.02 22 131.285 22ZM147 28H131.285C131.02 28 130.765 28.1054 130.578 28.2929C130.39 28.4804 130.285 28.7348 130.285 29C130.285 29.2652 130.39 29.5196 130.578 29.7071C130.765 29.8946 131.02 30 131.285 30H147C147.265 30 147.52 29.8946 147.707 29.7071C147.895 29.5196 148 29.2652 148 29C148 28.7348 147.895 28.4804 147.707 28.2929C147.52 28.1054 147.265 28 147 28ZM125 26H147C147.265 26 147.52 25.8946 147.707 25.7071C147.895 25.5196 148 25.2652 148 25C148 24.7348 147.895 24.4804 147.707 24.2929C147.52 24.1054 147.265 24 147 24H125C124.735 24 124.48 24.1054 124.293 24.2929C124.105 24.4804 124 24.7348 124 25C124 25.2652 124.105 25.5196 124.293 25.7071C124.48 25.8946 124.735 26 125 26Z" fill="#292929"/>
<path d="M121 26C121.552 26 122 25.5523 122 25C122 24.4477 121.552 24 121 24C120.448 24 120 24.4477 120 25C120 25.5523 120.448 26 121 26Z" fill="#292929"/>
<path d="M36.715 138H21C20.7348 138 20.4804 138.105 20.2929 138.293C20.1054 138.48 20 138.735 20 139C20 139.265 20.1054 139.52 20.2929 139.707C20.4804 139.895 20.7348 140 21 140H36.715C36.9802 140 37.2346 139.895 37.4221 139.707C37.6096 139.52 37.715 139.265 37.715 139C37.715 138.735 37.6096 138.48 37.4221 138.293C37.2346 138.105 36.9802 138 36.715 138ZM20 143C20 143.265 20.1054 143.52 20.2929 143.707C20.4804 143.895 20.7348 144 21 144H43C43.2652 144 43.5196 143.895 43.7071 143.707C43.8946 143.52 44 143.265 44 143C44 142.735 43.8946 142.48 43.7071 142.293C43.5196 142.105 43.2652 142 43 142H21C20.7348 142 20.4804 142.105 20.2929 142.293C20.1054 142.48 20 142.735 20 143Z" fill="#292929"/>
<path d="M47 144C47.5523 144 48 143.552 48 143C48 142.448 47.5523 142 47 142C46.4477 142 46 142.448 46 143C46 143.552 46.4477 144 47 144Z" fill="#292929"/>
<path d="M78 112C78 112.265 78.1054 112.52 78.2929 112.707C78.4804 112.895 78.7348 113 79 113H89C89.2652 113 89.5196 112.895 89.7071 112.707C89.8946 112.52 90 112.265 90 112C90 111.735 89.8946 111.48 89.7071 111.293C89.5196 111.105 89.2652 111 89 111H79C78.7348 111 78.4804 111.105 78.2929 111.293C78.1054 111.48 78 111.735 78 112ZM71 89H61C60.7348 89 60.4804 89.1054 60.2929 89.2929C60.1054 89.4804 60 89.7348 60 90C60 90.2652 60.1054 90.5196 60.2929 90.7071C60.4804 90.8946 60.7348 91 61 91H71C71.2652 91 71.5196 90.8946 71.7071 90.7071C71.8946 90.5196 72 90.2652 72 90C72 89.7348 71.8946 89.4804 71.7071 89.2929C71.5196 89.1054 71.2652 89 71 89ZM97 91H107C107.265 91 107.52 90.8946 107.707 90.7071C107.895 90.5196 108 90.2652 108 90C108 89.7348 107.895 89.4804 107.707 89.2929C107.52 89.1054 107.265 89 107 89H97C96.7348 89 96.4804 89.1054 96.2929 89.2929C96.1054 89.4804 96 89.7348 96 90C96 90.2652 96.1054 90.5196 96.2929 90.7071C96.4804 90.8946 96.7348 91 97 91ZM28.333 78.217C28.3908 77.9582 28.3434 77.6869 28.2013 77.463C28.0591 77.2391 27.8339 77.0808 27.575 77.023C27.3161 76.9652 27.0449 77.0126 26.821 77.1547C26.5971 77.2969 26.4388 77.5221 26.381 77.781C25.5087 82.4033 26.11 87.1828 28.1 91.445C28.2182 91.6825 28.4258 91.8633 28.6773 91.9477C28.9288 92.0321 29.2035 92.0132 29.441 91.895C29.6785 91.7768 29.8593 91.5692 29.9437 91.3177C30.0281 91.0662 30.0092 90.7915 29.891 90.554C28.1247 86.6971 27.581 82.392 28.333 78.217V78.217ZM136.555 91.9C136.673 91.9585 136.801 91.9933 136.932 92.0024C137.063 92.0114 137.194 91.9946 137.319 91.9528C137.443 91.911 137.558 91.8451 137.657 91.7588C137.756 91.6726 137.838 91.5676 137.896 91.45C139.887 87.1883 140.49 82.4087 139.619 77.786C139.593 77.6556 139.54 77.5317 139.465 77.4217C139.391 77.3117 139.294 77.2178 139.183 77.1454C139.071 77.073 138.946 77.0237 138.815 77.0002C138.684 76.9768 138.55 76.9797 138.42 77.0089C138.29 77.038 138.167 77.0928 138.059 77.17C137.95 77.2472 137.859 77.3452 137.789 77.4584C137.719 77.5716 137.672 77.6976 137.651 77.829C137.63 77.9605 137.636 78.0948 137.668 78.224C138.423 82.3979 137.875 86.7029 136.1 90.555C136.041 90.6731 136.006 90.8017 135.997 90.9334C135.988 91.0651 136.005 91.1972 136.047 91.3223C136.09 91.4473 136.156 91.5627 136.243 91.6619C136.331 91.761 136.436 91.842 136.555 91.9ZM159 12.5C159 12.1044 158.883 11.7178 158.663 11.3889C158.443 11.06 158.131 10.8036 157.765 10.6522C157.4 10.5009 156.998 10.4613 156.61 10.5384C156.222 10.6156 155.865 10.8061 155.586 11.0858C155.306 11.3655 155.116 11.7219 155.038 12.1098C154.961 12.4978 155.001 12.8999 155.152 13.2654C155.304 13.6308 155.56 13.9432 155.889 14.1629C156.218 14.3827 156.604 14.5 157 14.5C157.53 14.5 158.039 14.2893 158.414 13.9142C158.789 13.5391 159 13.0304 159 12.5ZM156 12.5C156 12.3022 156.059 12.1089 156.169 11.9444C156.278 11.78 156.435 11.6518 156.617 11.5761C156.8 11.5004 157.001 11.4806 157.195 11.5192C157.389 11.5578 157.567 11.653 157.707 11.7929C157.847 11.9327 157.942 12.1109 157.981 12.3049C158.019 12.4989 158 12.7 157.924 12.8827C157.848 13.0654 157.72 13.2216 157.556 13.3315C157.391 13.4414 157.198 13.5 157 13.5C156.735 13.5 156.48 13.3946 156.293 13.2071C156.105 13.0196 156 12.7652 156 12.5ZM89 17.5C89.5933 17.5 90.1734 17.3241 90.6667 16.9944C91.1601 16.6648 91.5446 16.1962 91.7716 15.6481C91.9987 15.0999 92.0581 14.4967 91.9424 13.9147C91.8266 13.3328 91.5409 12.7982 91.1213 12.3787C90.7018 11.9591 90.1672 11.6734 89.5853 11.5576C89.0033 11.4419 88.4001 11.5013 87.852 11.7284C87.3038 11.9554 86.8352 12.3399 86.5056 12.8333C86.1759 13.3266 86 13.9067 86 14.5C86 15.2957 86.3161 16.0587 86.8787 16.6213C87.4413 17.1839 88.2044 17.5 89 17.5ZM89 13C89.2967 13 89.5867 13.088 89.8334 13.2528C90.08 13.4176 90.2723 13.6519 90.3858 13.926C90.4993 14.2001 90.5291 14.5017 90.4712 14.7926C90.4133 15.0836 90.2704 15.3509 90.0607 15.5607C89.8509 15.7704 89.5836 15.9133 89.2926 15.9712C89.0017 16.0291 88.7001 15.9994 88.426 15.8858C88.1519 15.7723 87.9176 15.58 87.7528 15.3334C87.588 15.0867 87.5 14.7967 87.5 14.5C87.5 14.1022 87.658 13.7206 87.9393 13.4393C88.2206 13.158 88.6022 13 89 13ZM153 71.625C152.629 71.625 152.267 71.735 151.958 71.941C151.65 72.147 151.41 72.4399 151.268 72.7825C151.126 73.1251 151.089 73.5021 151.161 73.8658C151.233 74.2295 151.412 74.5636 151.674 74.8258C151.936 75.0881 152.27 75.2666 152.634 75.339C152.998 75.4113 153.375 75.3742 153.718 75.2323C154.06 75.0904 154.353 74.85 154.559 74.5417C154.765 74.2334 154.875 73.8708 154.875 73.5C154.874 73.0029 154.677 72.5263 154.325 72.1748C153.974 71.8232 153.497 71.6255 153 71.625V71.625ZM153 74.438C152.814 74.4382 152.633 74.3833 152.479 74.2803C152.324 74.1773 152.204 74.0309 152.133 73.8594C152.061 73.688 152.043 73.4993 152.079 73.3173C152.115 73.1352 152.204 72.968 152.336 72.8367C152.467 72.7055 152.634 72.6161 152.816 72.58C152.998 72.5438 153.187 72.5625 153.358 72.6336C153.53 72.7047 153.676 72.8251 153.779 72.9795C153.882 73.1339 153.937 73.3154 153.937 73.501C153.937 73.7494 153.838 73.9876 153.662 74.1633C153.487 74.3389 153.248 74.4377 153 74.438ZM57 7.5C57.3956 7.5 57.7822 7.3827 58.1111 7.16294C58.44 6.94318 58.6964 6.63082 58.8478 6.26537C58.9991 5.89992 59.0387 5.49778 58.9616 5.10982C58.8844 4.72186 58.6939 4.36549 58.4142 4.08579C58.1345 3.80608 57.7781 3.6156 57.3902 3.53843C57.0022 3.46126 56.6001 3.50087 56.2346 3.65224C55.8692 3.80362 55.5568 4.05996 55.3371 4.38886C55.1173 4.71776 55 5.10444 55 5.5C55 6.03043 55.2107 6.53914 55.5858 6.91421C55.9609 7.28929 56.4696 7.5 57 7.5ZM57 4.5C57.1978 4.5 57.3911 4.55865 57.5556 4.66853C57.72 4.77841 57.8482 4.93459 57.9239 5.11732C57.9996 5.30004 58.0194 5.50111 57.9808 5.69509C57.9422 5.88907 57.847 6.06726 57.7071 6.20711C57.5673 6.34696 57.3891 6.4422 57.1951 6.48079C57.0011 6.51937 56.8 6.49957 56.6173 6.42388C56.4346 6.34819 56.2784 6.22002 56.1685 6.05557C56.0586 5.89112 56 5.69778 56 5.5C56 5.23478 56.1054 4.98043 56.2929 4.79289C56.4804 4.60536 56.7348 4.5 57 4.5V4.5ZM20 47.5C20.3956 47.5 20.7822 47.3827 21.1111 47.1629C21.44 46.9432 21.6964 46.6308 21.8478 46.2654C21.9991 45.8999 22.0387 45.4978 21.9616 45.1098C21.8844 44.7219 21.6939 44.3655 21.4142 44.0858C21.1345 43.8061 20.7781 43.6156 20.3902 43.5384C20.0022 43.4613 19.6001 43.5009 19.2346 43.6522C18.8692 43.8036 18.5568 44.06 18.3371 44.3889C18.1173 44.7178 18 45.1044 18 45.5C18 46.0304 18.2107 46.5391 18.5858 46.9142C18.9609 47.2893 19.4696 47.5 20 47.5ZM20 44.5C20.1978 44.5 20.3911 44.5586 20.5556 44.6685C20.72 44.7784 20.8482 44.9346 20.9239 45.1173C20.9996 45.3 21.0194 45.5011 20.9808 45.6951C20.9422 45.8891 20.847 46.0673 20.7071 46.2071C20.5673 46.347 20.3891 46.4422 20.1951 46.4808C20.0011 46.5194 19.8 46.4996 19.6173 46.4239C19.4346 46.3482 19.2784 46.22 19.1685 46.0556C19.0586 45.8911 19 45.6978 19 45.5C19 45.2348 19.1054 44.9804 19.2929 44.7929C19.4804 44.6054 19.7348 44.5 20 44.5Z" fill="#292929"/>
<path d="M152 146H89.287C90.3985 145.272 91.2375 144.196 91.673 142.941C126.91 136.528 134.893 103.584 134.973 103.223C135.005 103.081 135.005 102.934 134.973 102.792C135.099 102.772 135.208 102.757 135.349 102.733C138.908 102.087 142.126 100.21 144.439 97.4293C146.752 94.6488 148.013 91.1429 148 87.526V81.187C148.009 78.2314 147.169 75.3353 145.58 72.8433C143.99 70.3513 141.719 68.3683 139.035 67.13C133.717 40.368 110.655 21 84 21C58.188 21 35.286 39.641 29.346 65.4C26.5737 66.6077 24.2134 68.5971 22.5536 71.1248C20.8938 73.6525 20.0064 76.6091 20 79.633V85.969C19.9838 90.0466 21.5854 93.9642 24.4536 96.8626C27.3218 99.761 31.2224 101.404 35.3 101.43C36.0565 101.43 36.812 101.373 37.56 101.26C37.9371 101.207 38.2971 101.069 38.6128 100.856C38.9285 100.643 39.1915 100.361 39.382 100.031C39.5839 99.6643 39.6996 99.2564 39.7204 98.8383C39.7412 98.4203 39.6665 98.0029 39.502 97.618C37.0842 91.6481 35.8441 85.2669 35.85 78.826C35.855 78.615 35.968 75.577 36.097 74.126C36.132 73.737 36.168 73.351 36.211 72.97C36.265 72.494 36.325 72.019 36.386 71.562C36.6826 69.518 37.1021 67.4936 37.642 65.5C43.279 44.547 61.733 29.8 82.776 29.25C81.2949 33.3871 81.1204 37.8794 82.276 42.119C78.234 49.11 72.958 56.534 66.676 60.277C64.084 61.821 61.304 63.177 58.616 64.484C50.992 68.2 43.8 71.7 40.241 79.3C39.5342 80.7594 39.113 82.3404 39 83.958C42.065 106.046 61.028 130 83.979 130C107.048 130 126.087 105.869 129 83.612V83.544C128.838 80.77 128.685 78.15 127.2 76.455C122.74 71.361 116.61 67.812 111.768 65.288C110.418 64.588 109.068 63.911 107.717 63.239C100.685 59.739 93.417 56.113 88.351 48.968C86.8532 46.8491 85.5401 44.6055 84.426 42.262C83.1124 37.9919 83.2862 33.4025 84.919 29.244C106.403 29.657 124.898 44.525 130.464 65.844H130.394L130.677 67.009C133.268 77.6796 132.275 88.9063 127.853 98.957C127.677 99.3372 127.589 99.7523 127.595 100.171C127.602 100.59 127.703 101.003 127.891 101.377C128.067 101.714 128.318 102.007 128.625 102.232C128.931 102.458 129.285 102.61 129.66 102.677C130.426 102.827 131.202 102.921 131.981 102.957C132.322 102.978 132.603 102.991 132.881 102.991H132.967C132.256 105.709 123.933 134.607 91.99 140.828C91.9616 139.797 91.6682 138.792 91.138 137.907C90.6077 137.023 89.8586 136.291 88.9629 135.78C88.0672 135.27 87.055 134.999 86.0241 134.993C84.9931 134.988 83.9782 135.248 83.0771 135.749C82.176 136.25 81.4192 136.975 80.8796 137.853C80.34 138.731 80.0359 139.734 79.9966 140.764C79.9573 141.795 80.1842 142.818 80.6552 143.735C81.1263 144.652 81.8257 145.432 82.686 146H16C15.7348 146 15.4804 146.105 15.2929 146.293C15.1054 146.48 15 146.735 15 147C15 147.265 15.1054 147.52 15.2929 147.707C15.4804 147.895 15.7348 148 16 148H152C152.265 148 152.52 147.895 152.707 147.707C152.895 147.52 153 147.265 153 147C153 146.735 152.895 146.48 152.707 146.293C152.52 146.105 152.265 146 152 146ZM86.717 50.123C92.067 57.675 99.565 61.412 106.823 65.023L106.883 65.053C108.183 65.701 109.528 66.371 110.841 67.053C115.529 69.497 121.453 72.923 125.693 77.764C126.71 78.927 126.855 81.164 126.993 83.527C125.283 94.8222 120.264 105.357 112.568 113.8C104.253 122.959 94.1 128 83.979 128C73.919 128 63.808 123 55.509 113.913C47.8476 105.549 42.8081 95.1217 41.015 83.922C41.123 82.6107 41.475 81.331 42.053 80.149C45.308 73.189 52.195 69.835 59.486 66.283C62.211 64.956 65.028 63.583 67.694 61.996C72.959 58.86 78.067 53.091 83.246 44.415C84.2677 46.3967 85.4276 48.3041 86.717 50.123ZM132.086 100.968C131.4 100.936 130.718 100.854 130.044 100.722C129.964 100.711 129.888 100.682 129.822 100.635C129.755 100.589 129.701 100.528 129.663 100.457C129.615 100.348 129.592 100.23 129.595 100.11C129.598 99.9914 129.628 99.8745 129.681 99.768C134.136 89.6453 135.249 78.3663 132.859 67.568L132.938 67.553L132.7 66.54C127.218 43.392 107.194 27.224 84 27.224C61.548 27.224 41.689 42.749 35.71 64.975C35.1503 67.051 34.7162 69.1588 34.41 71.287C34.346 71.769 34.284 72.257 34.228 72.746C34.183 73.146 34.145 73.546 34.109 73.946C33.97 75.503 33.854 78.717 33.854 78.8C33.8466 85.5051 35.137 92.1482 37.654 98.363C37.7038 98.4682 37.7297 98.5831 37.7297 98.6995C37.7297 98.8159 37.7038 98.9308 37.654 99.036C37.6134 99.1037 37.5574 99.1609 37.4904 99.2027C37.4235 99.2446 37.3476 99.2701 37.269 99.277C36.6206 99.3754 35.9658 99.4248 35.31 99.425C31.762 99.4012 28.3683 97.9712 25.8731 95.4487C23.378 92.9262 21.9851 89.5171 22 85.969V79.633C22.0041 76.9205 22.8231 74.2718 24.3506 72.0303C25.8782 69.7888 28.0439 68.0579 30.567 67.062L31.067 66.869L31.183 66.346C36.734 41.229 58.947 23 84 23C109.866 23 132.226 41.934 137.169 68.02L137.269 68.548L137.769 68.756C140.215 69.7835 142.303 71.5125 143.767 73.7248C145.232 75.9371 146.009 78.5337 146 81.187V87.526C146.013 90.6715 144.918 93.7212 142.909 96.1411C140.899 98.561 138.102 100.197 135.008 100.762C134.049 100.972 133.065 101.042 132.086 100.969V100.968ZM86 145C85.2089 145 84.4355 144.765 83.7777 144.326C83.1199 143.886 82.6072 143.262 82.3045 142.531C82.0017 141.8 81.9225 140.996 82.0769 140.22C82.2312 139.444 82.6122 138.731 83.1716 138.172C83.731 137.612 84.4437 137.231 85.2196 137.077C85.9956 136.923 86.7998 137.002 87.5307 137.304C88.2616 137.607 88.8864 138.12 89.3259 138.778C89.7654 139.436 90 140.209 90 141C90 142.061 89.5786 143.078 88.8284 143.828C88.0783 144.579 87.0609 145 86 145ZM11 146H6C5.73478 146 5.48043 146.105 5.29289 146.293C5.10536 146.48 5 146.735 5 147C5 147.265 5.10536 147.52 5.29289 147.707C5.48043 147.895 5.73478 148 6 148H11C11.2652 148 11.5196 147.895 11.7071 147.707C11.8946 147.52 12 147.265 12 147C12 146.735 11.8946 146.48 11.7071 146.293C11.5196 146.105 11.2652 146 11 146Z" fill="black"/>
<path d="M1 148C1.55228 148 2 147.552 2 147C2 146.448 1.55228 146 1 146C0.447715 146 0 146.448 0 147C0 147.552 0.447715 148 1 148Z" fill="#292929"/>
<path d="M162 146H157C156.735 146 156.48 146.105 156.293 146.293C156.105 146.48 156 146.735 156 147C156 147.265 156.105 147.52 156.293 147.707C156.48 147.895 156.735 148 157 148H162C162.265 148 162.52 147.895 162.707 147.707C162.895 147.52 163 147.265 163 147C163 146.735 162.895 146.48 162.707 146.293C162.52 146.105 162.265 146 162 146Z" fill="#292929"/>
<path d="M167 148C167.552 148 168 147.552 168 147C168 146.448 167.552 146 167 146C166.448 146 166 146.448 166 147C166 147.552 166.448 148 167 148Z" fill="#292929"/>
<path d="M28 75C28.5523 75 29 74.5523 29 74C29 73.4477 28.5523 73 28 73C27.4477 73 27 73.4477 27 74C27 74.5523 27.4477 75 28 75Z" fill="#292929"/>
<path d="M138 75C138.552 75 139 74.5523 139 74C139 73.4477 138.552 73 138 73C137.448 73 137 73.4477 137 74C137 74.5523 137.448 75 138 75Z" fill="#292929"/>
<path d="M5.58299 71.5114L7.06999 69.5564L6.13099 69.0244L5.17699 71.2144H5.14499L4.17499 69.0394L3.21999 69.5874L4.69099 71.4964V71.5274L2.39099 71.2304V72.2944L4.70699 71.9974V72.0284L3.21999 73.9364L4.11199 74.5004L5.12999 72.2944H5.15999L6.09899 74.4844L7.08499 73.9214L5.58299 72.0434V72.0124L7.94499 72.2944V71.2304L5.58299 71.5424V71.5114Z" fill="#292929"/>
<path d="M22.281 17.2689L23.137 16.1429L22.597 15.8369L22.047 17.0979H22.029L21.471 15.8449L20.92 16.1609L21.768 17.2599V17.2779L20.443 17.1069V17.7199L21.777 17.5489V17.5669L20.92 18.6659L21.434 18.9899L22.02 17.7199H22.038L22.578 18.9809L23.146 18.6569L22.281 17.5749V17.5569L23.641 17.7199V17.1069L22.281 17.2869V17.2689Z" fill="#292929"/>
<path d="M135.463 4.73086L137.617 4.98786V4.01786L135.463 4.30286V4.27486L136.819 2.49086L135.963 2.00586L135.092 4.00286H135.063L134.179 2.01986L133.308 2.51986L134.65 4.26086V4.28886L132.552 4.01786V4.98786L134.664 4.71686V4.74586L133.308 6.48586L134.121 6.99986L135.049 4.98786H135.077L135.934 6.98486L136.833 6.47186L135.463 4.75986V4.73086Z" fill="#292929"/>
<path d="M112.702 12.5234L111.444 14.1384L112.198 14.6154L113.06 12.7484H113.085L113.88 14.6014L114.714 14.1254L113.443 12.5364V12.5094L115.442 12.7484V11.8484L113.443 12.1124V12.0864L114.701 10.4314L113.907 9.98145L113.099 11.8344H113.073L112.252 9.99445L111.444 10.4584L112.689 12.0734V12.0994L110.742 11.8484V12.7484L112.702 12.4964V12.5234Z" fill="#292929"/>
<path d="M105 152H63C62.7348 152 62.4804 152.105 62.2929 152.293C62.1054 152.48 62 152.735 62 153C62 153.265 62.1054 153.52 62.2929 153.707C62.4804 153.895 62.7348 154 63 154H81V156H71C70.7348 156 70.4804 156.105 70.2929 156.293C70.1054 156.48 70 156.735 70 157C70 157.265 70.1054 157.52 70.2929 157.707C70.4804 157.895 70.7348 158 71 158H98C98.2652 158 98.5196 157.895 98.7071 157.707C98.8946 157.52 99 157.265 99 157C99 156.735 98.8946 156.48 98.7071 156.293C98.5196 156.105 98.2652 156 98 156H87V154H105C105.265 154 105.52 153.895 105.707 153.707C105.895 153.52 106 153.265 106 153C106 152.735 105.895 152.48 105.707 152.293C105.52 152.105 105.265 152 105 152ZM119 152H109C108.735 152 108.48 152.105 108.293 152.293C108.105 152.48 108 152.735 108 153C108 153.265 108.105 153.52 108.293 153.707C108.48 153.895 108.735 154 109 154H119C119.265 154 119.52 153.895 119.707 153.707C119.895 153.52 120 153.265 120 153C120 152.735 119.895 152.48 119.707 152.293C119.52 152.105 119.265 152 119 152ZM59 152H49C48.7348 152 48.4804 152.105 48.2929 152.293C48.1054 152.48 48 152.735 48 153C48 153.265 48.1054 153.52 48.2929 153.707C48.4804 153.895 48.7348 154 49 154H59C59.2652 154 59.5196 153.895 59.7071 153.707C59.8946 153.52 60 153.265 60 153C60 152.735 59.8946 152.48 59.7071 152.293C59.5196 152.105 59.2652 152 59 152Z" fill="#292929"/>
</svg>
