<svg width="168" height="168" viewBox="0 0 168 168" fill="none" xmlns="http://www.w3.org/2000/svg">
<path d="M69.5 41.4541C70.0304 41.4541 70.5391 41.2434 70.9142 40.8683C71.2893 40.4932 71.5 39.9845 71.5 39.4541V33.4541C71.5 32.9237 71.2893 32.415 70.9142 32.0399C70.5391 31.6648 70.0304 31.4541 69.5 31.4541C68.9696 31.4541 68.4609 31.6648 68.0858 32.0399C67.7107 32.415 67.5 32.9237 67.5 33.4541V39.4541C67.5 39.9845 67.7107 40.4932 68.0858 40.8683C68.4609 41.2434 68.9696 41.4541 69.5 41.4541V41.4541ZM67.5 107.454V113.454C67.5 113.985 67.7107 114.493 68.0858 114.868C68.4609 115.243 68.9696 115.454 69.5 115.454C70.0304 115.454 70.5391 115.243 70.9142 114.868C71.2893 114.493 71.5 113.985 71.5 113.454V107.454C71.5 106.924 71.2893 106.415 70.9142 106.04C70.5391 105.665 70.0304 105.454 69.5 105.454C68.9696 105.454 68.4609 105.665 68.0858 106.04C67.7107 106.415 67.5 106.924 67.5 107.454ZM35.5 71.4541H29.5C28.9696 71.4541 28.4609 71.6648 28.0858 72.0399C27.7107 72.415 27.5 72.9237 27.5 73.4541C27.5 73.9845 27.7107 74.4932 28.0858 74.8683C28.4609 75.2434 28.9696 75.4541 29.5 75.4541H35.5C36.0304 75.4541 36.5391 75.2434 36.9142 74.8683C37.2893 74.4932 37.5 73.9845 37.5 73.4541C37.5 72.9237 37.2893 72.415 36.9142 72.0399C36.5391 71.6648 36.0304 71.4541 35.5 71.4541Z" fill="#292929"/>
<path d="M99.1982 43.7559C99.0126 43.5701 98.7921 43.4227 98.5495 43.3222C98.3069 43.2217 98.0468 43.1699 97.7842 43.1699C97.5215 43.1699 97.2615 43.2217 97.0188 43.3222C96.7762 43.4227 96.5558 43.5701 96.3701 43.7559L92.1279 47.998C91.9421 48.1837 91.7947 48.4042 91.6942 48.6468C91.5936 48.8895 91.5418 49.1496 91.5418 49.4122C91.5417 49.6749 91.5934 49.935 91.6939 50.1777C91.7944 50.4204 91.9417 50.6409 92.1275 50.8266C92.3132 51.0124 92.5337 51.1597 92.7764 51.2602C93.0191 51.3607 93.2792 51.4124 93.5419 51.4123C93.8045 51.4123 94.0646 51.3605 94.3073 51.2599C94.5499 51.1594 94.7704 51.012 94.9561 50.8262L99.1982 46.584C99.384 46.3983 99.5314 46.1779 99.6319 45.9352C99.7324 45.6926 99.7842 45.4326 99.7842 45.1699C99.7842 44.9073 99.7324 44.6472 99.6319 44.4046C99.5314 44.162 99.384 43.9415 99.1982 43.7559V43.7559ZM39.8018 103.152C39.9874 103.338 40.2079 103.485 40.4505 103.586C40.6931 103.687 40.9532 103.738 41.2158 103.738C41.4785 103.738 41.7385 103.687 41.9811 103.586C42.2238 103.485 42.4442 103.338 42.6299 103.152L46.8721 98.9101C47.2454 98.5348 47.4547 98.0266 47.454 97.4972C47.4533 96.9677 47.2427 96.4602 46.8683 96.0858C46.4939 95.7114 45.9864 95.5008 45.4569 95.5001C44.9275 95.4994 44.4193 95.7087 44.044 96.082L39.8018 100.324C39.616 100.51 39.4686 100.73 39.3681 100.973C39.2676 101.216 39.2158 101.476 39.2158 101.738C39.2158 102.001 39.2676 102.261 39.3681 102.504C39.4686 102.746 39.616 102.967 39.8018 103.152V103.152ZM44.0439 50.8262C44.4192 51.2 44.9275 51.4097 45.4572 51.4092C45.9869 51.4087 46.4948 51.198 46.8694 50.8235C47.2439 50.4489 47.4546 49.941 47.4551 49.4113C47.4556 48.8816 47.2459 48.3733 46.8721 47.998L42.6299 43.7559C42.2546 43.382 41.7463 43.1723 41.2166 43.1728C40.6869 43.1733 40.179 43.384 39.8045 43.7586C39.4299 44.1331 39.2192 44.641 39.2187 45.1707C39.2182 45.7004 39.4279 46.2087 39.8018 46.584L44.0439 50.8262ZM76.5 73.4541C76.4976 71.9476 76.0101 70.4819 75.1095 69.2742C74.2089 68.0665 72.9432 67.181 71.5 66.749V50.9541C71.5 50.4237 71.2893 49.915 70.9142 49.5399C70.5391 49.1648 70.0304 48.9541 69.5 48.9541C68.9696 48.9541 68.4609 49.1648 68.0858 49.5399C67.7107 49.915 67.5 50.4237 67.5 50.9541V66.7489C66.388 67.0833 65.3762 67.6881 64.5551 68.5092C63.734 69.3303 63.1292 70.342 62.7949 71.4541H46.25C45.7196 71.4541 45.2109 71.6648 44.8358 72.0398C44.4607 72.4149 44.25 72.9236 44.25 73.4541C44.25 73.9845 44.4607 74.4932 44.8358 74.8683C45.2109 75.2433 45.7196 75.4541 46.25 75.4541H62.7949C63.2749 77.0653 64.319 78.4499 65.7361 79.3546C67.1532 80.2593 68.8487 80.6235 70.5123 80.3807C72.1759 80.138 73.6966 79.3044 74.7961 78.0325C75.8956 76.7605 76.5004 75.1353 76.5 73.4541V73.4541ZM69.5 76.4541C68.9066 76.4541 68.3266 76.2781 67.8333 75.9485C67.3399 75.6189 66.9554 75.1503 66.7284 74.6021C66.5013 74.054 66.4419 73.4508 66.5576 72.8688C66.6734 72.2869 66.9591 71.7523 67.3787 71.3328C67.7982 70.9132 68.3328 70.6275 68.9147 70.5117C69.4967 70.396 70.0999 70.4554 70.648 70.6825C71.1962 70.9095 71.6648 71.294 71.9944 71.7874C72.324 72.2807 72.5 72.8607 72.5 73.4541C72.4991 74.2495 72.1828 75.012 71.6204 75.5745C71.0579 76.1369 70.2954 76.4532 69.5 76.4541ZM92.1279 96.082C91.9422 96.2677 91.7948 96.4881 91.6943 96.7308C91.5937 96.9734 91.542 97.2335 91.542 97.4961C91.542 97.7587 91.5937 98.0188 91.6943 98.2614C91.7948 98.5041 91.9422 98.7245 92.1279 98.9102L96.3701 103.152C96.551 103.332 96.7649 103.476 97 103.575V98.3408C97 98.2718 97.0093 98.2052 97.0106 98.1365L94.9561 96.082C94.7704 95.8963 94.5499 95.7489 94.3073 95.6484C94.0647 95.5478 93.8046 95.4961 93.542 95.4961C93.2794 95.4961 93.0193 95.5478 92.7767 95.6484C92.534 95.7489 92.3136 95.8963 92.1279 96.082V96.082Z" fill="black"/>
<path d="M103.5 71.4541C102.97 71.4541 102.461 71.6648 102.086 72.0399C101.711 72.415 101.5 72.9237 101.5 73.4541C101.5 73.9845 101.711 74.4932 102.086 74.8683C102.461 75.2434 102.97 75.4541 103.5 75.4541H107.253C107.085 74.4629 107.001 73.4594 107 72.4541C107 72.1166 107.032 71.7871 107.051 71.4541H103.5Z" fill="#292929"/>
<path d="M70 123.454C79.5782 123.462 88.9544 120.701 97 115.504V110.687C89.1612 116.37 79.7288 119.435 70.0465 119.444C60.3643 119.453 50.926 116.407 43.0762 110.739C35.2265 105.071 29.3656 97.0701 26.3285 87.8765C23.2914 78.6829 23.2331 68.7654 26.1617 59.5366C29.0904 50.3079 34.8567 42.2388 42.6392 36.4787C50.4217 30.7186 59.8234 27.5613 69.5051 27.4567C79.1868 27.352 88.6547 30.3053 96.5598 35.8959C104.465 41.4864 110.404 49.4291 113.532 58.5924C114.595 57.7186 115.755 56.9694 116.988 56.3592C113.861 47.763 108.435 40.1895 101.302 34.463C94.1687 28.7365 85.6013 25.0766 76.5323 23.8816C67.4633 22.6867 58.2403 24.0024 49.8672 27.6857C41.4942 31.369 34.292 37.2787 29.0447 44.7714C23.7974 52.2641 20.7061 61.0527 20.1073 70.1804C19.5085 79.3082 21.4251 88.4253 25.6485 96.5393C29.872 104.653 36.2404 111.453 44.0605 116.199C51.8805 120.944 60.8526 123.454 70 123.454V123.454Z" fill="#292929"/>
<path d="M111 72.4541C111 75.223 111.821 77.9298 113.359 80.2321C114.898 82.5344 117.084 84.3288 119.642 85.3884C122.201 86.448 125.016 86.7253 127.731 86.1851C130.447 85.6449 132.942 84.3115 134.899 82.3536C136.857 80.3957 138.191 77.9011 138.731 75.1854C139.271 72.4696 138.994 69.6547 137.934 67.0965C136.875 64.5384 135.08 62.3519 132.778 60.8135C130.476 59.2752 127.769 58.4541 125 58.4541C121.288 58.4583 117.73 59.9346 115.105 62.5592C112.481 65.1838 111.004 68.7424 111 72.4541V72.4541ZM135 72.4541C135 74.4319 134.414 76.3653 133.315 78.0098C132.216 79.6543 130.654 80.936 128.827 81.6929C127 82.4498 124.989 82.6478 123.049 82.262C121.109 81.8761 119.327 80.9237 117.929 79.5252C116.53 78.1266 115.578 76.3448 115.192 74.405C114.806 72.4652 115.004 70.4545 115.761 68.6273C116.518 66.8 117.8 65.2382 119.444 64.1394C121.089 63.0406 123.022 62.4541 125 62.4541C127.652 62.4541 130.196 63.5077 132.071 65.383C133.946 67.2584 135 69.8019 135 72.4541Z" fill="black"/>
<path d="M2 151.454C3.10457 151.454 4 150.559 4 149.454C4 148.35 3.10457 147.454 2 147.454C0.89543 147.454 0 148.35 0 149.454C0 150.559 0.89543 151.454 2 151.454Z" fill="#292929"/>
<path d="M11 147.454H8C7.46957 147.454 6.96086 147.665 6.58579 148.04C6.21071 148.415 6 148.924 6 149.454C6 149.985 6.21071 150.493 6.58579 150.868C6.96086 151.243 7.46957 151.454 8 151.454H11C11.5304 151.454 12.0391 151.243 12.4142 150.868C12.7893 150.493 13 149.985 13 149.454C13 148.924 12.7893 148.415 12.4142 148.04C12.0391 147.665 11.5304 147.454 11 147.454Z" fill="#292929"/>
<path d="M118.154 155.454H109.846C109.343 155.494 108.874 155.723 108.532 156.093C108.19 156.464 108 156.95 108 157.454C108 157.958 108.19 158.444 108.532 158.815C108.874 159.186 109.343 159.414 109.846 159.454H118.154C118.657 159.414 119.126 159.186 119.468 158.815C119.81 158.444 120 157.958 120 157.454C120 156.95 119.81 156.464 119.468 156.093C119.126 155.723 118.657 155.494 118.154 155.454ZM58.1539 155.454H49.8462C49.3434 155.494 48.8742 155.723 48.5321 156.093C48.19 156.464 48 156.95 48 157.454C48 157.958 48.19 158.444 48.5321 158.815C48.8742 159.186 49.3434 159.414 49.8462 159.454H58.1539C58.6567 159.414 59.1258 159.186 59.468 158.815C59.8101 158.444 60.0001 157.958 60.0001 157.454C60.0001 156.95 59.8101 156.464 59.468 156.093C59.1258 155.723 58.6567 155.494 58.1539 155.454V155.454ZM104 155.454H64C63.4696 155.454 62.9609 155.665 62.5858 156.04C62.2107 156.415 62 156.924 62 157.454C62 157.985 62.2107 158.493 62.5858 158.868C62.9609 159.243 63.4696 159.454 64 159.454H79.94V161.454H72C71.4696 161.454 70.9609 161.665 70.5858 162.04C70.2107 162.415 70 162.924 70 163.454C70 163.985 70.2107 164.493 70.5858 164.868C70.9609 165.243 71.4696 165.454 72 165.454H97C97.5305 165.454 98.0392 165.243 98.4142 164.868C98.7893 164.493 99 163.985 99 163.454C99 162.924 98.7893 162.415 98.4142 162.04C98.0392 161.665 97.5305 161.454 97 161.454H88.06V159.454H104C104.53 159.454 105.039 159.243 105.414 158.868C105.789 158.493 106 157.985 106 157.454C106 156.924 105.789 156.415 105.414 156.04C105.039 155.665 104.53 155.454 104 155.454Z" fill="black"/>
<path d="M2 151.454C3.10457 151.454 4 150.559 4 149.454C4 148.35 3.10457 147.454 2 147.454C0.89543 147.454 0 148.35 0 149.454C0 150.559 0.89543 151.454 2 151.454Z" fill="#292929"/>
<path d="M11 147.454H8C7.46957 147.454 6.96086 147.665 6.58579 148.04C6.21071 148.415 6 148.924 6 149.454C6 149.985 6.21071 150.493 6.58579 150.868C6.96086 151.243 7.46957 151.454 8 151.454H11C11.5304 151.454 12.0391 151.243 12.4142 150.868C12.7893 150.493 13 149.985 13 149.454C13 148.924 12.7893 148.415 12.4142 148.04C12.0391 147.665 11.5304 147.454 11 147.454Z" fill="#292929"/>
<path d="M118.154 155.454H109.846C109.343 155.494 108.874 155.723 108.532 156.093C108.19 156.464 108 156.95 108 157.454C108 157.958 108.19 158.444 108.532 158.815C108.874 159.186 109.343 159.414 109.846 159.454H118.154C118.657 159.414 119.126 159.186 119.468 158.815C119.81 158.444 120 157.958 120 157.454C120 156.95 119.81 156.464 119.468 156.093C119.126 155.723 118.657 155.494 118.154 155.454ZM58.1539 155.454H49.8462C49.3434 155.494 48.8742 155.723 48.5321 156.093C48.19 156.464 48 156.95 48 157.454C48 157.958 48.19 158.444 48.5321 158.815C48.8742 159.186 49.3434 159.414 49.8462 159.454H58.1539C58.6567 159.414 59.1258 159.186 59.468 158.815C59.8101 158.444 60.0001 157.958 60.0001 157.454C60.0001 156.95 59.8101 156.464 59.468 156.093C59.1258 155.723 58.6567 155.494 58.1539 155.454V155.454ZM104 155.454H64C63.4696 155.454 62.9609 155.665 62.5858 156.04C62.2107 156.415 62 156.924 62 157.454C62 157.985 62.2107 158.493 62.5858 158.868C62.9609 159.243 63.4696 159.454 64 159.454H79.94V161.454H72C71.4696 161.454 70.9609 161.665 70.5858 162.04C70.2107 162.415 70 162.924 70 163.454C70 163.985 70.2107 164.493 70.5858 164.868C70.9609 165.243 71.4696 165.454 72 165.454H97C97.5305 165.454 98.0392 165.243 98.4142 164.868C98.7893 164.493 99 163.985 99 163.454C99 162.924 98.7893 162.415 98.4142 162.04C98.0392 161.665 97.5305 161.454 97 161.454H88.06V159.454H104C104.53 159.454 105.039 159.243 105.414 158.868C105.789 158.493 106 157.985 106 157.454C106 156.924 105.789 156.415 105.414 156.04C105.039 155.665 104.53 155.454 104 155.454Z" fill="black"/>
<path d="M160 147.454H157C156.47 147.454 155.961 147.665 155.586 148.04C155.211 148.415 155 148.924 155 149.454C155 149.985 155.211 150.493 155.586 150.868C155.961 151.243 156.47 151.454 157 151.454H160C160.53 151.454 161.039 151.243 161.414 150.868C161.789 150.493 162 149.985 162 149.454C162 148.924 161.789 148.415 161.414 148.04C161.039 147.665 160.53 147.454 160 147.454Z" fill="#292929"/>
<path d="M166 151.454C167.105 151.454 168 150.559 168 149.454C168 148.35 167.105 147.454 166 147.454C164.895 147.454 164 148.35 164 149.454C164 150.559 164.895 151.454 166 151.454Z" fill="#292929"/>
<path d="M150.72 147.454H138V136.454H143C144.591 136.453 146.116 135.82 147.241 134.695C148.366 133.57 148.999 132.045 149 130.454V98.3439C148.964 96.2191 148.087 94.1953 146.561 92.7162C145.035 91.2371 142.985 90.4236 140.86 90.4539H109.14C107.015 90.4236 104.965 91.2371 103.439 92.7162C101.913 94.1953 101.036 96.2191 101 98.3439V130.454C101.001 132.045 101.634 133.57 102.759 134.695C103.884 135.82 105.409 136.453 107 136.454H112V147.454H17.28C16.9953 147.417 16.706 147.44 16.4313 147.524C16.1565 147.607 15.9028 147.748 15.6869 147.937C15.4711 148.127 15.2982 148.36 15.1797 148.622C15.0612 148.883 14.9999 149.167 14.9999 149.454C14.9999 149.741 15.0612 150.025 15.1797 150.286C15.2982 150.548 15.4711 150.781 15.6869 150.97C15.9028 151.16 16.1565 151.301 16.4313 151.384C16.706 151.468 16.9953 151.491 17.28 151.454H150.72C151.005 151.491 151.294 151.468 151.569 151.384C151.843 151.301 152.097 151.16 152.313 150.97C152.529 150.781 152.702 150.548 152.82 150.286C152.939 150.025 153 149.741 153 149.454C153 149.167 152.939 148.883 152.82 148.622C152.702 148.36 152.529 148.127 152.313 147.937C152.097 147.748 151.843 147.607 151.569 147.524C151.294 147.44 151.005 147.417 150.72 147.454V147.454ZM136 125.454C135.47 125.455 134.962 125.667 134.587 126.041C134.213 126.416 134.002 126.924 134 127.454V147.454H127V133.244C127 132.714 126.789 132.205 126.414 131.83C126.039 131.455 125.53 131.244 125 131.244C124.47 131.244 123.961 131.455 123.586 131.83C123.211 132.205 123 132.714 123 133.244V147.454H116V127.454C116 126.924 115.789 126.415 115.414 126.04C115.039 125.665 114.53 125.454 114 125.454C113.47 125.454 112.961 125.665 112.586 126.04C112.211 126.415 112 126.924 112 127.454V132.454H107C106.47 132.452 105.962 132.241 105.588 131.866C105.213 131.492 105.002 130.984 105 130.454V98.3439C105.035 97.2797 105.49 96.2727 106.266 95.5436C107.042 94.8145 108.076 94.4226 109.14 94.4539H140.86C141.924 94.4226 142.958 94.8145 143.734 95.5436C144.51 96.2727 144.965 97.2797 145 98.3439V130.454C144.998 130.984 144.787 131.492 144.412 131.866C144.038 132.241 143.53 132.452 143 132.454H138V127.454C137.998 126.924 137.787 126.416 137.413 126.041C137.038 125.667 136.53 125.455 136 125.454V125.454Z" fill="#292929"/>
<path d="M130.93 115.224L127.81 118.304C127.06 119.041 126.051 119.454 125 119.454C123.949 119.454 122.94 119.041 122.19 118.304L119.07 115.224C118.609 114.772 118.264 114.214 118.065 113.599C117.867 112.985 117.82 112.331 117.93 111.694L120.94 94.4541H125L121.88 112.374L125 115.454L128.12 112.374L125 94.4541H129.06L132.07 111.694C132.18 112.331 132.133 112.985 131.934 113.599C131.736 114.214 131.391 114.772 130.93 115.224V115.224Z" fill="black"/>
<path d="M125.484 37.7723C125.152 37.2809 124.681 36.8992 124.131 36.6754C123.582 36.4517 122.978 36.3959 122.397 36.5151C121.816 36.6344 121.283 36.9233 120.866 37.3454C120.449 37.7674 120.166 38.3037 120.054 38.8863C119.942 39.4689 120.005 40.0718 120.235 40.6186C120.466 41.1654 120.853 41.6316 121.348 41.9583C121.844 42.285 122.425 42.4574 123.018 42.4539C123.611 42.4503 124.19 42.2709 124.682 41.9383C125.34 41.4917 125.794 40.8023 125.944 40.0213C126.095 39.2403 125.929 38.4315 125.484 37.7723V37.7723ZM121.758 40.2948C121.592 40.0491 121.502 39.7596 121.5 39.4629C121.498 39.1663 121.584 38.8757 121.748 38.6281C121.911 38.3804 122.144 38.1868 122.418 38.0716C122.691 37.9564 122.992 37.9249 123.284 37.981C123.575 38.0372 123.843 38.1784 124.054 38.3869C124.265 38.5954 124.41 38.8619 124.469 39.1525C124.529 39.4431 124.501 39.7449 124.389 40.0196C124.277 40.2944 124.087 40.5298 123.841 40.6961C123.511 40.9187 123.107 41.0015 122.716 40.9262C122.326 40.851 121.981 40.6239 121.758 40.2948V40.2948ZM155 55.3623C154.604 55.3623 154.218 55.4796 153.889 55.6994C153.56 55.9191 153.304 56.2315 153.152 56.5969C153.001 56.9624 152.961 57.3645 153.038 57.7525C153.116 58.1404 153.306 58.4968 153.586 58.7765C153.865 59.0562 154.222 59.2467 154.61 59.3239C154.998 59.401 155.4 59.3614 155.765 59.2101C156.131 59.0587 156.443 58.8023 156.663 58.4734C156.883 58.1445 157 57.7579 157 57.3623C156.999 56.8321 156.788 56.3237 156.414 55.9488C156.039 55.5738 155.53 55.3629 155 55.3623ZM155 58.3623C154.802 58.3623 154.609 58.3037 154.444 58.1938C154.28 58.0839 154.152 57.9277 154.076 57.745C154 57.5623 153.981 57.3612 154.019 57.1672C154.058 56.9732 154.153 56.7951 154.293 56.6552C154.433 56.5153 154.611 56.4201 154.805 56.3815C154.999 56.3429 155.2 56.3627 155.383 56.4384C155.565 56.5141 155.722 56.6423 155.831 56.8067C155.941 56.9712 156 57.1645 156 57.3623C156 57.6274 155.894 57.8816 155.707 58.0691C155.519 58.2566 155.265 58.362 155 58.3623ZM111 10.1206C110.604 10.1206 110.218 10.2379 109.889 10.4577C109.56 10.6774 109.304 10.9898 109.152 11.3552C109.001 11.7207 108.961 12.1228 109.038 12.5108C109.116 12.8987 109.306 13.2551 109.586 13.5348C109.865 13.8145 110.222 14.005 110.61 14.0822C110.998 14.1593 111.4 14.1197 111.765 13.9684C112.131 13.817 112.443 13.5606 112.663 13.2317C112.883 12.9028 113 12.5162 113 12.1206C112.999 11.5904 112.788 11.082 112.414 10.7071C112.039 10.3321 111.53 10.1212 111 10.1206ZM111 13.1206C110.802 13.1206 110.609 13.062 110.444 12.9521C110.28 12.8422 110.152 12.686 110.076 12.5033C110 12.3206 109.981 12.1195 110.019 11.9255C110.058 11.7315 110.153 11.5534 110.293 11.4135C110.433 11.2736 110.611 11.1784 110.805 11.1398C110.999 11.1012 111.2 11.121 111.383 11.1967C111.565 11.2724 111.722 11.4006 111.831 11.565C111.941 11.7295 112 11.9228 112 12.1206C112 12.3857 111.894 12.6399 111.707 12.8274C111.519 13.0149 111.265 13.1203 111 13.1206V13.1206ZM152.581 2.8623C152.185 2.8623 151.798 2.9796 151.469 3.19937C151.141 3.41913 150.884 3.73149 150.733 4.09694C150.581 4.46239 150.542 4.86452 150.619 5.25249C150.696 5.64045 150.887 5.99681 151.166 6.27652C151.446 6.55622 151.802 6.7467 152.19 6.82388C152.578 6.90105 152.98 6.86144 153.346 6.71006C153.711 6.55869 154.024 6.30234 154.243 5.97345C154.463 5.64455 154.581 5.25787 154.581 4.8623C154.58 4.33206 154.369 3.8237 153.994 3.44876C153.619 3.07382 153.111 2.86291 152.581 2.8623V2.8623ZM152.581 5.8623C152.383 5.8623 152.189 5.80366 152.025 5.69377C151.861 5.58389 151.732 5.42771 151.657 5.24499C151.581 5.06226 151.561 4.8612 151.6 4.66721C151.638 4.47323 151.734 4.29505 151.873 4.1552C152.013 4.01535 152.191 3.9201 152.385 3.88152C152.579 3.84293 152.781 3.86274 152.963 3.93843C153.146 4.01411 153.302 4.14229 153.412 4.30673C153.522 4.47118 153.581 4.66452 153.581 4.8623C153.58 5.12744 153.475 5.38164 153.287 5.56912C153.1 5.7566 152.846 5.86204 152.581 5.8623V5.8623ZM29.5 29.4539C29.5 29.0584 29.3827 28.6717 29.1629 28.3428C28.9432 28.0139 28.6308 27.7575 28.2654 27.6062C27.8999 27.4548 27.4978 27.4152 27.1098 27.4924C26.7219 27.5695 26.3655 27.76 26.0858 28.0397C25.8061 28.3194 25.6156 28.6758 25.5384 29.0638C25.4613 29.4517 25.5009 29.8538 25.6522 30.2193C25.8036 30.5848 26.06 30.8971 26.3889 31.1169C26.7178 31.3366 27.1044 31.4539 27.5 31.4539C28.0302 31.4533 28.5386 31.2424 28.9135 30.8675C29.2885 30.4925 29.4994 29.9842 29.5 29.4539V29.4539ZM26.5 29.4539C26.5 29.2562 26.5586 29.0628 26.6685 28.8984C26.7784 28.7339 26.9346 28.6057 27.1173 28.5301C27.3 28.4544 27.5011 28.4346 27.6951 28.4731C27.8891 28.5117 28.0673 28.607 28.2071 28.7468C28.347 28.8867 28.4422 29.0649 28.4808 29.2588C28.5194 29.4528 28.4996 29.6539 28.4239 29.8366C28.3482 30.0193 28.22 30.1755 28.0556 30.2854C27.8911 30.3953 27.6978 30.4539 27.5 30.4539C27.2349 30.4537 26.9807 30.3482 26.7932 30.1607C26.6057 29.9733 26.5003 29.7191 26.5 29.4539V29.4539Z" fill="#292929"/>
<path d="M10.888 68.4645L12.375 66.5095L11.436 65.9775L10.481 68.1675H10.45L9.48001 65.9925L8.52501 66.5405L9.99601 68.4495V68.4805L7.69501 68.1835V69.2475L10.011 68.9505V68.9815L8.52501 70.8895L9.41601 71.4535L10.434 69.2475H10.465L11.404 71.4375L12.39 70.8745L10.888 68.9965V68.9655L13.25 69.2475V68.1835L10.888 68.4965V68.4645Z" fill="black"/>
<path d="M3.734 6.59328L2.878 7.69228L3.392 8.01628L3.978 6.74528H3.996L4.536 8.00728L5.104 7.68328L4.239 6.60128V6.58328L5.599 6.74528V6.13328L4.239 6.31328V6.29528L5.095 5.16928L4.555 4.86328L4.005 6.12428H3.987L3.429 4.87128L2.878 5.18728L3.726 6.28628V6.30428L2.401 6.13328V6.74528L3.734 6.57528V6.59328Z" fill="black"/>
<path d="M163.029 25.5703V24.5263L160.712 24.8333V24.8023L162.17 22.8843L161.249 22.3633L160.313 24.5113H160.282L159.331 22.3783L158.394 22.9153L159.837 24.7873V24.8183L157.581 24.5263V25.5703L159.852 25.2783V25.3093L158.394 27.1813L159.269 27.7343L160.267 25.5703H160.297L161.218 27.7183L162.185 27.1663L160.712 25.3243V25.2933L163.029 25.5703Z" fill="black"/>
<path d="M58.377 4.6499L59.634 2.9959L58.84 2.5459L58.033 4.3989H58.006L57.185 2.5589L56.377 3.0219L57.622 4.6379V4.6639L55.675 4.4119V5.3119L57.635 5.0609V5.0879L56.377 6.7019L57.132 7.1789L57.993 5.3119H58.019L58.813 7.1659L59.647 6.6889L58.377 5.0999V5.0739L60.375 5.3119V4.4119L58.377 4.6769V4.6499Z" fill="black"/>
</svg>
