<svg width="168" height="168" viewBox="0 0 168 168" fill="none" xmlns="http://www.w3.org/2000/svg">
<path d="M2 151.5C3.10457 151.5 4 150.605 4 149.5C4 148.395 3.10457 147.5 2 147.5C0.89543 147.5 0 148.395 0 149.5C0 150.605 0.89543 151.5 2 151.5Z" fill="#292929"/>
<path d="M11 147.5H8C7.46957 147.5 6.96086 147.711 6.58579 148.086C6.21071 148.461 6 148.97 6 149.5C6 150.03 6.21071 150.539 6.58579 150.914C6.96086 151.289 7.46957 151.5 8 151.5H11C11.5304 151.5 12.0391 151.289 12.4142 150.914C12.7893 150.539 13 150.03 13 149.5C13 148.97 12.7893 148.461 12.4142 148.086C12.0391 147.711 11.5304 147.5 11 147.5ZM160 147.5H157C156.47 147.5 155.961 147.711 155.586 148.086C155.211 148.461 155 148.97 155 149.5C155 150.03 155.211 150.539 155.586 150.914C155.961 151.289 156.47 151.5 157 151.5H160C160.53 151.5 161.039 151.289 161.414 150.914C161.789 150.539 162 150.03 162 149.5C162 148.97 161.789 148.461 161.414 148.086C161.039 147.711 160.53 147.5 160 147.5Z" fill="#292929"/>
<path d="M166 151.5C167.105 151.5 168 150.605 168 149.5C168 148.395 167.105 147.5 166 147.5C164.895 147.5 164 148.395 164 149.5C164 150.605 164.895 151.5 166 151.5Z" fill="#292929"/>
<path d="M118.154 155.5H109.846C109.343 155.54 108.874 155.768 108.532 156.139C108.19 156.51 108 156.996 108 157.5C108 158.004 108.19 158.49 108.532 158.861C108.874 159.232 109.343 159.46 109.846 159.5H118.154C118.657 159.46 119.126 159.232 119.468 158.861C119.81 158.49 120 158.004 120 157.5C120 156.996 119.81 156.51 119.468 156.139C119.126 155.768 118.657 155.54 118.154 155.5V155.5ZM58.1539 155.5H49.8462C49.3434 155.54 48.8742 155.768 48.5321 156.139C48.19 156.51 48 156.996 48 157.5C48 158.004 48.19 158.49 48.5321 158.861C48.8742 159.232 49.3434 159.46 49.8462 159.5H58.1539C58.6567 159.46 59.1258 159.232 59.468 158.861C59.8101 158.49 60.0001 158.004 60.0001 157.5C60.0001 156.996 59.8101 156.51 59.468 156.139C59.1258 155.768 58.6567 155.54 58.1539 155.5V155.5ZM104 155.5H64C63.4696 155.5 62.9609 155.711 62.5858 156.086C62.2107 156.461 62 156.97 62 157.5C62 158.03 62.2107 158.539 62.5858 158.914C62.9609 159.289 63.4696 159.5 64 159.5H79.94V161.5H72C71.4696 161.5 70.9609 161.711 70.5858 162.086C70.2107 162.461 70 162.97 70 163.5C70 164.03 70.2107 164.539 70.5858 164.914C70.9609 165.289 71.4696 165.5 72 165.5H97C97.5305 165.5 98.0392 165.289 98.4142 164.914C98.7893 164.539 99 164.03 99 163.5C99 162.97 98.7893 162.461 98.4142 162.086C98.0392 161.711 97.5305 161.5 97 161.5H88.06V159.5H104C104.53 159.5 105.039 159.289 105.414 158.914C105.789 158.539 106 158.03 106 157.5C106 156.97 105.789 156.461 105.414 156.086C105.039 155.711 104.53 155.5 104 155.5Z" fill="black"/>
<path d="M58 63.4997V85.4997C58.0012 86.5602 58.423 87.5769 59.1729 88.3268C59.9228 89.0767 60.9395 89.4985 62 89.4997H106C107.06 89.4985 108.077 89.0767 108.827 88.3268C109.577 87.5769 109.999 86.5602 110 85.4997V63.4997C109.995 59.2577 108.308 55.1909 105.308 52.1913C102.309 49.1918 98.242 47.5046 94 47.4997H93.7793C95.771 45.5555 97.138 43.0617 97.7057 40.3369C98.2734 37.6121 98.016 34.7799 96.9664 32.202C95.9168 29.6242 94.1227 27.4177 91.8131 25.8644C89.5035 24.3111 86.7833 23.4814 84 23.4814C81.2167 23.4814 78.4965 24.3111 76.1869 25.8644C73.8774 27.4177 72.0832 29.6242 71.0336 32.202C69.984 34.7799 69.7266 37.6121 70.2943 40.3369C70.862 43.0617 72.229 45.5555 74.2207 47.4997H74C69.758 47.5046 65.6912 49.1918 62.6917 52.1913C59.6921 55.1909 58.0049 59.2577 58 63.4997V63.4997ZM74 37.4997C74 35.5219 74.5865 33.5885 75.6853 31.944C76.7841 30.2995 78.3459 29.0178 80.1732 28.2609C82.0004 27.504 84.0111 27.306 85.9509 27.6918C87.8907 28.0777 89.6725 29.0301 91.0711 30.4286C92.4696 31.8272 93.422 33.609 93.8079 35.5488C94.1937 37.4886 93.9957 39.4993 93.2388 41.3265C92.4819 43.1538 91.2002 44.7156 89.5557 45.8144C87.9112 46.9132 85.9778 47.4997 84 47.4997C81.3487 47.4968 78.8069 46.4422 76.9322 44.5675C75.0575 42.6928 74.0029 40.151 74 37.4997V37.4997ZM94 51.4997C97.1815 51.5033 100.232 52.7688 102.481 55.0184C104.731 57.2681 105.996 60.3182 106 63.4997L106.002 85.4997H62V63.4997C62.0036 60.3182 63.2691 57.2681 65.5187 55.0184C67.7684 52.7688 70.8185 51.5033 74 51.4997H94Z" fill="#292929"/>
<path d="M150.72 147.5H106.39L112.19 145.1C113.169 144.691 113.945 143.911 114.35 142.931C114.755 141.951 114.755 140.85 114.35 139.87L112.6 135.64C114.302 134.629 115.947 133.528 117.53 132.34L120.77 135.58C121.521 136.329 122.539 136.75 123.6 136.75C124.661 136.75 125.679 136.329 126.43 135.58L132.08 129.93C132.829 129.179 133.25 128.161 133.25 127.1C133.25 126.039 132.829 125.021 132.08 124.27L128.84 121.03C130.028 119.447 131.13 117.802 132.14 116.1L136.37 117.85C137.35 118.253 138.45 118.251 139.43 117.847C140.409 117.442 141.189 116.667 141.6 115.69L144.66 108.3C145.064 107.319 145.062 106.217 144.656 105.237C144.249 104.256 143.47 103.477 142.49 103.07L138.27 101.32C138.752 99.4008 139.136 97.4583 139.42 95.5H144C144.525 95.5001 145.046 95.3968 145.531 95.1958C146.016 94.9948 146.457 94.7002 146.829 94.3287C147.2 93.9573 147.495 93.5163 147.696 93.0309C147.897 92.5455 148 92.0253 148 91.5V63.5C147.994 59.2582 146.307 55.1918 143.307 52.1925C140.308 49.1931 136.242 47.5056 132 47.5H131.78C133.772 45.5557 135.138 43.0619 135.706 40.3371C136.273 37.6124 136.016 34.7803 134.966 32.2026C133.917 29.6248 132.122 27.4185 129.813 25.8653C127.503 24.312 124.783 23.4825 122 23.4825C119.217 23.4825 116.497 24.312 114.187 25.8653C111.878 27.4185 110.083 29.6248 109.034 32.2026C107.984 34.7803 107.727 37.6124 108.294 40.3371C108.862 43.0619 110.228 45.5557 112.22 47.5H112C110.293 47.4998 108.598 47.7768 106.98 48.32C108.14 49.3152 109.184 50.4391 110.09 51.67C110.721 51.5625 111.36 51.5056 112 51.5H132C135.182 51.5025 138.233 52.7676 140.482 55.0175C142.732 57.2674 143.997 60.3182 144 63.5V85.5H114C113.998 86.9052 113.626 88.285 112.92 89.5H144V91.5H137.66C137.167 91.5001 136.692 91.6816 136.325 92.01C135.958 92.3384 135.725 92.7905 135.67 93.28C135.344 96.2103 134.769 99.1075 133.95 101.94C133.815 102.413 133.858 102.919 134.072 103.361C134.286 103.804 134.656 104.152 135.11 104.34L140.96 106.77L137.9 114.16L132.05 111.73C131.597 111.542 131.09 111.527 130.627 111.69C130.163 111.852 129.777 112.18 129.54 112.61C128.108 115.19 126.462 117.645 124.62 119.95C124.312 120.334 124.157 120.818 124.185 121.309C124.213 121.8 124.421 122.263 124.77 122.61L129.25 127.1L123.6 132.75L119.11 128.27C118.763 127.921 118.3 127.713 117.809 127.685C117.318 127.657 116.834 127.812 116.45 128.12C114.145 129.962 111.69 131.608 109.11 133.04C108.68 133.277 108.352 133.663 108.19 134.127C108.027 134.59 108.042 135.097 108.23 135.55L110.66 141.4L103.27 144.46L100.84 138.61C100.651 138.156 100.303 137.788 99.8604 137.574C99.4181 137.36 98.9127 137.316 98.44 137.45C95.6075 138.268 92.7103 138.844 89.78 139.17C89.2905 139.225 88.8384 139.458 88.51 139.825C88.1817 140.192 88.0001 140.667 88 141.16V147.5H80V141.16C79.9999 140.667 79.8183 140.192 79.49 139.825C79.1616 139.458 78.7095 139.225 78.22 139.17C75.32 138.85 69.19 137.37 69.01 137.37C68.614 137.372 68.2275 137.491 67.8985 137.712C67.5696 137.932 67.3128 138.245 67.16 138.61L64.73 144.46L57.34 141.4L59.77 135.55C59.9582 135.097 59.9725 134.59 59.8101 134.127C59.6477 133.663 59.3201 133.277 58.89 133.04C56.3102 131.608 53.855 129.962 51.55 128.12C51.1663 127.812 50.6823 127.657 50.1912 127.685C49.7002 127.713 49.2367 127.921 48.89 128.27L44.4 132.75L38.75 127.1L43.23 122.61C43.5789 122.263 43.7872 121.8 43.8149 121.309C43.8426 120.818 43.6877 120.334 43.38 119.95C41.5379 117.645 39.8921 115.19 38.46 112.61C38.2235 112.18 37.8365 111.852 37.3733 111.69C36.9101 111.527 36.4033 111.542 35.95 111.73L30.1 114.16L27.04 106.77L32.89 104.34C33.3443 104.152 33.7136 103.804 33.9276 103.361C34.1415 102.919 34.1851 102.413 34.05 101.94C33.2315 99.1075 32.656 96.2103 32.33 93.28C32.2752 92.7905 32.042 92.3384 31.6749 92.01C31.3078 91.6816 30.8325 91.5001 30.34 91.5H24V89.5H55.08C54.3741 88.285 54.0015 86.9052 54 85.5H24V63.5C24.0025 60.3182 25.2676 57.2674 27.5175 55.0175C29.7674 52.7676 32.8182 51.5025 36 51.5H56C56.6402 51.5056 57.2789 51.5625 57.91 51.67C58.8163 50.4391 59.8597 49.3152 61.02 48.32C59.4021 47.7768 57.7067 47.4998 56 47.5H55.78C57.7715 45.5557 59.1383 43.0619 59.7059 40.3371C60.2734 37.6124 60.0159 34.7803 58.9662 32.2026C57.9166 29.6248 56.1224 27.4185 53.8129 25.8652C51.5033 24.312 48.7832 23.4824 46 23.4824C43.2168 23.4824 40.4967 24.312 38.1871 25.8652C35.8776 27.4185 34.0834 29.6248 33.0338 32.2026C31.9841 34.7803 31.7266 37.6124 32.2941 40.3371C32.8617 43.0619 34.2285 45.5557 36.22 47.5H36C31.7583 47.5056 27.6919 49.1931 24.6925 52.1925C21.6931 55.1918 20.0056 59.2582 20 63.5V91.5C19.9999 92.0253 20.1032 92.5455 20.3042 93.0309C20.5052 93.5163 20.7998 93.9573 21.1713 94.3287C21.5427 94.7002 21.9837 94.9948 22.4691 95.1958C22.9545 95.3968 23.4747 95.5001 24 95.5H28.58C28.864 97.4583 29.2478 99.4008 29.73 101.32L25.51 103.07C24.5298 103.477 23.751 104.256 23.3443 105.237C22.9375 106.217 22.936 107.319 23.34 108.3L26.4 115.69C26.8088 116.669 27.5887 117.445 28.5689 117.85C29.5491 118.255 30.6498 118.255 31.63 117.85L35.86 116.1C36.8705 117.802 37.9721 119.447 39.16 121.03L35.92 124.27C35.1708 125.021 34.75 126.039 34.75 127.1C34.75 128.161 35.1708 129.179 35.92 129.93L41.57 135.58C42.3212 136.329 43.339 136.75 44.4 136.75C45.461 136.75 46.4788 136.329 47.23 135.58L50.47 132.34C52.0528 133.528 53.6985 134.629 55.4 135.64L53.65 139.87C53.2451 140.85 53.2451 141.951 53.6499 142.931C54.0547 143.911 54.8315 144.691 55.81 145.1L61.61 147.5H17.28C16.9953 147.463 16.706 147.486 16.4313 147.57C16.1565 147.653 15.9028 147.794 15.6869 147.984C15.4711 148.173 15.2982 148.406 15.1797 148.668C15.0612 148.929 14.9999 149.213 14.9999 149.5C14.9999 149.787 15.0612 150.071 15.1797 150.332C15.2982 150.594 15.4711 150.827 15.6869 151.016C15.9028 151.206 16.1565 151.347 16.4313 151.43C16.706 151.514 16.9953 151.537 17.28 151.5H150.72C151.005 151.537 151.294 151.514 151.569 151.43C151.843 151.347 152.097 151.206 152.313 151.016C152.529 150.827 152.702 150.594 152.82 150.332C152.939 150.071 153 149.787 153 149.5C153 149.213 152.939 148.929 152.82 148.668C152.702 148.406 152.529 148.173 152.313 147.984C152.097 147.794 151.843 147.653 151.569 147.57C151.294 147.486 151.005 147.463 150.72 147.5V147.5ZM122 47.5C120.022 47.5 118.089 46.9135 116.444 45.8147C114.8 44.7159 113.518 43.1541 112.761 41.3268C112.004 39.4996 111.806 37.4889 112.192 35.5491C112.578 33.6093 113.53 31.8274 114.929 30.4289C116.327 29.0304 118.109 28.078 120.049 27.6921C121.989 27.3063 124 27.5043 125.827 28.2612C127.654 29.0181 129.216 30.2998 130.315 31.9443C131.414 33.5888 132 35.5222 132 37.5C131.996 40.1508 130.941 42.6918 129.066 44.5662C127.192 46.4407 124.651 47.4956 122 47.5V47.5ZM36 37.5C36 35.5222 36.5865 33.5888 37.6853 31.9443C38.7841 30.2998 40.3459 29.0181 42.1732 28.2612C44.0004 27.5043 46.0111 27.3063 47.9509 27.6921C49.8907 28.078 51.6725 29.0304 53.0711 30.4289C54.4696 31.8274 55.422 33.6093 55.8079 35.5491C56.1937 37.4889 55.9957 39.4996 55.2388 41.3268C54.4819 43.1541 53.2002 44.7159 51.5557 45.8147C49.9112 46.9135 47.9778 47.5 46 47.5C43.3492 47.4956 40.8082 46.4407 38.9337 44.5662C37.0593 42.6918 36.0044 40.1508 36 37.5V37.5ZM76 147.5H67.31C67.7991 147.094 68.1833 146.576 68.43 145.99L70.18 141.77C72.0991 142.252 74.0417 142.636 76 142.92V147.5ZM92 147.5V142.92C93.9583 142.636 95.9009 142.252 97.82 141.77L99.57 145.99C99.8167 146.576 100.201 147.094 100.69 147.5H92Z" fill="#292929"/>
<path d="M120.94 89.5C120.43 98.9524 116.315 107.85 109.444 114.36C102.572 120.871 93.4662 124.5 84 124.5C74.5338 124.5 65.4278 120.871 58.5561 114.36C51.6845 107.85 47.5702 98.9524 47.06 89.5H51.07C51.577 97.8897 55.2671 105.77 61.387 111.531C67.5069 117.292 75.595 120.5 84 120.5C92.405 120.5 100.493 117.292 106.613 111.531C112.733 105.77 116.423 97.8897 116.93 89.5H120.94Z" fill="black"/>
<path d="M97.8047 8.5C98.398 8.5 98.978 8.32405 99.4714 7.99441C99.9647 7.66477 100.349 7.19623 100.576 6.64805C100.803 6.09987 100.863 5.49667 100.747 4.91473C100.631 4.33279 100.346 3.79824 99.926 3.37868C99.5065 2.95912 98.9719 2.6734 98.39 2.55765C97.808 2.44189 97.2048 2.5013 96.6566 2.72836C96.1085 2.95543 95.6399 3.33994 95.3103 3.83329C94.9806 4.32664 94.8047 4.90666 94.8047 5.5C94.8056 6.29537 95.122 7.0579 95.6844 7.62032C96.2468 8.18273 97.0093 8.49909 97.8047 8.5V8.5ZM97.8047 4C98.1014 4 98.3914 4.08798 98.638 4.2528C98.8847 4.41762 99.077 4.65189 99.1905 4.92598C99.304 5.20007 99.3337 5.50167 99.2759 5.79264C99.218 6.08361 99.0751 6.35088 98.8653 6.56066C98.6556 6.77044 98.3883 6.9133 98.0973 6.97118C97.8063 7.02906 97.5047 6.99935 97.2307 6.88582C96.9566 6.77229 96.7223 6.58003 96.5575 6.33336C96.3927 6.08668 96.3047 5.79667 96.3047 5.5C96.3051 5.1023 96.4632 4.72099 96.7445 4.43977C97.0257 4.15855 97.407 4.00039 97.8047 4V4ZM158.305 68.5C157.909 68.5 157.522 68.6173 157.194 68.8371C156.865 69.0568 156.608 69.3692 156.457 69.7346C156.306 70.1001 156.266 70.5022 156.343 70.8902C156.42 71.2781 156.611 71.6345 156.89 71.9142C157.17 72.1939 157.527 72.3844 157.915 72.4616C158.302 72.5387 158.705 72.4991 159.07 72.3478C159.436 72.1964 159.748 71.94 159.968 71.6111C160.187 71.2822 160.305 70.8956 160.305 70.5C160.304 69.9698 160.093 69.4614 159.718 69.0865C159.343 68.7115 158.835 68.5006 158.305 68.5V68.5ZM158.305 71.5C158.107 71.5 157.914 71.4413 157.749 71.3315C157.585 71.2216 157.457 71.0654 157.381 70.8827C157.305 70.7 157.285 70.4989 157.324 70.3049C157.362 70.1109 157.458 69.9327 157.598 69.7929C157.737 69.653 157.916 69.5578 158.11 69.5192C158.304 69.4806 158.505 69.5004 158.687 69.5761C158.87 69.6518 159.026 69.78 159.136 69.9444C159.246 70.1089 159.305 70.3022 159.305 70.5C159.304 70.7651 159.199 71.0193 159.012 71.2068C158.824 71.3943 158.57 71.4997 158.305 71.5V71.5ZM6.30469 9.25C5.90913 9.25 5.52245 9.3673 5.19355 9.58706C4.86465 9.80683 4.6083 10.1192 4.45693 10.4846C4.30555 10.8501 4.26595 11.2522 4.34312 11.6402C4.42029 12.0281 4.61077 12.3845 4.89047 12.6642C5.17018 12.9439 5.52655 13.1344 5.91451 13.2116C6.30247 13.2887 6.7046 13.2491 7.07006 13.0978C7.43551 12.9464 7.74786 12.69 7.96763 12.3611C8.18739 12.0322 8.30469 11.6456 8.30469 11.25C8.30408 10.7198 8.09317 10.2114 7.71823 9.83646C7.34329 9.46152 6.83494 9.25061 6.30469 9.25V9.25ZM6.30469 12.25C6.10691 12.25 5.91357 12.1914 5.74912 12.0815C5.58467 11.9716 5.4565 11.8154 5.38081 11.6327C5.30512 11.45 5.28532 11.2489 5.3239 11.0549C5.36249 10.8609 5.45773 10.6827 5.59758 10.5429C5.73743 10.403 5.91562 10.3078 6.1096 10.2692C6.30358 10.2306 6.50465 10.2504 6.68737 10.3261C6.8701 10.4018 7.02628 10.53 7.13616 10.6944C7.24604 10.8589 7.30469 11.0522 7.30469 11.25C7.30442 11.5151 7.19898 11.7693 7.0115 11.9568C6.82402 12.1443 6.56982 12.2497 6.30469 12.25V12.25ZM160 13.75C159.604 13.75 159.218 13.8673 158.889 14.0871C158.56 14.3068 158.304 14.6192 158.152 14.9846C158.001 15.3501 157.961 15.7522 158.038 16.1402C158.116 16.5281 158.306 16.8845 158.586 17.1642C158.865 17.4439 159.222 17.6344 159.61 17.7116C159.998 17.7887 160.4 17.7491 160.765 17.5978C161.131 17.4464 161.443 17.19 161.663 16.8611C161.883 16.5322 162 16.1456 162 15.75C161.999 15.2198 161.788 14.7114 161.414 14.3365C161.039 13.9615 160.53 13.7506 160 13.75V13.75ZM160 16.75C159.802 16.75 159.609 16.6914 159.444 16.5815C159.28 16.4716 159.152 16.3154 159.076 16.1327C159 15.95 158.981 15.7489 159.019 15.5549C159.058 15.3609 159.153 15.1827 159.293 15.0429C159.433 14.903 159.611 14.8078 159.805 14.7692C159.999 14.7306 160.2 14.7504 160.383 14.8261C160.565 14.9018 160.722 15.03 160.831 15.1944C160.941 15.3589 161 15.5522 161 15.75C161 16.0151 160.894 16.2693 160.707 16.4568C160.519 16.6443 160.265 16.7497 160 16.75ZM26.75 33.75C26.75 33.3544 26.6327 32.9678 26.4129 32.6389C26.1932 32.31 25.8808 32.0536 25.5153 31.9022C25.1499 31.7509 24.7478 31.7113 24.3598 31.7884C23.9718 31.8656 23.6155 32.0561 23.3358 32.3358C23.0561 32.6155 22.8656 32.9719 22.7884 33.3598C22.7112 33.7478 22.7508 34.1499 22.9022 34.5154C23.0536 34.8808 23.3099 35.1932 23.6388 35.4129C23.9677 35.6327 24.3544 35.75 24.75 35.75C25.2802 35.7494 25.7886 35.5385 26.1635 35.1635C26.5385 34.7886 26.7494 34.2802 26.75 33.75V33.75ZM23.75 33.75C23.75 33.5522 23.8086 33.3589 23.9185 33.1944C24.0284 33.03 24.1846 32.9018 24.3673 32.8261C24.55 32.7504 24.7511 32.7306 24.9451 32.7692C25.1391 32.8078 25.3172 32.903 25.4571 33.0429C25.5969 33.1827 25.6922 33.3609 25.7308 33.5549C25.7693 33.7489 25.7495 33.95 25.6739 34.1327C25.5982 34.3154 25.47 34.4716 25.3055 34.5815C25.1411 34.6914 24.9478 34.75 24.75 34.75C24.4848 34.7497 24.2306 34.6443 24.0432 34.4568C23.8557 34.2693 23.7502 34.0151 23.75 33.75Z" fill="#292929"/>
<path d="M10.8879 68.5114L12.3749 66.5564L11.4359 66.0244L10.4809 68.2144H10.4499L9.47995 66.0394L8.52495 66.5874L9.99595 68.4964V68.5274L7.69495 68.2304V69.2944L10.0109 68.9974V69.0284L8.52495 70.9364L9.41595 71.5004L10.4339 69.2944H10.4649L11.4039 71.4844L12.3899 70.9214L10.8879 69.0434V69.0124L13.2499 69.2944V68.2304L10.8879 68.5424V68.5114Z" fill="black"/>
<path d="M67.75 19.7681L66.894 20.8671L67.407 21.1921L67.994 19.9211H68.011L68.552 21.1821L69.12 20.8581L68.255 19.7771V19.7591L69.615 19.9211V19.3081L68.255 19.4881V19.4711L69.111 18.3441L68.57 18.0381L68.021 19.2991H68.002L67.444 18.0471L66.894 18.3621L67.741 19.4621V19.4801L66.416 19.3081V19.9211L67.75 19.7501V19.7681Z" fill="black"/>
<path d="M158.805 42.2129V41.1699L156.488 41.4769V41.4459L157.946 39.5279L157.025 39.0059L156.089 41.1539H156.058L155.107 39.0209L154.17 39.5589L155.613 41.4309V41.4619L153.356 41.1699V42.2129L155.628 41.9219V41.9529L154.17 43.8249L155.045 44.3779L156.043 42.2129H156.073L156.994 44.3619L157.961 43.8099L156.488 41.9679V41.9369L158.805 42.2129Z" fill="black"/>
<path d="M129.786 16.355L131.044 14.7L130.25 14.25L129.443 16.103H129.416L128.595 14.263L127.787 14.726L129.032 16.342V16.368L127.085 16.116V17.017L129.045 16.765V16.792L127.787 18.406L128.541 18.883L129.403 17.017H129.429L130.223 18.87L131.057 18.393L129.786 16.805V16.778L131.785 17.017V16.116L129.786 16.381V16.355Z" fill="black"/>
</svg>
