<svg width="168" height="168" viewBox="0 0 168 168" fill="none" xmlns="http://www.w3.org/2000/svg">
<path d="M46.6147 69.4268C45.9118 69.6533 45.1939 69.8305 44.4663 69.957C42.3652 70.376 39.9844 70.8525 39.2583 72.8838C38.5474 74.8779 40.0615 76.7451 41.3975 78.3926C41.8947 78.9724 42.3481 79.5883 42.754 80.2354C42.1735 80.6846 41.5625 81.0927 40.9253 81.457C39.0854 82.5723 37 83.8359 37 86C37 88.1641 39.0854 89.4277 40.9253 90.543C41.5625 90.9073 42.1735 91.3154 42.754 91.7646C42.3478 92.4117 41.8944 93.028 41.3975 93.6084C40.0615 95.2568 38.5474 97.125 39.2593 99.1182C39.984 101.148 42.3657 101.625 44.4669 102.044C45.1941 102.17 45.9117 102.348 46.6143 102.574C46.4511 103.314 46.2347 104.041 45.9669 104.75C45.2651 106.766 44.4697 109.05 45.8223 110.692C46.2233 111.121 46.7142 111.455 47.2597 111.671C47.8052 111.887 48.3917 111.979 48.9772 111.941H48.9863C49.8938 111.914 50.798 111.82 51.6915 111.659C52.3843 111.534 53.0848 111.455 53.7882 111.424C53.8292 111.424 53.8668 111.424 53.9005 111.425C53.9939 112.169 54.035 112.919 54.0235 113.67C54.0449 115.813 54.0699 118.244 55.9116 119.333C56.4116 119.624 56.9812 119.774 57.5596 119.767C59.058 119.6 60.4931 119.07 61.7398 118.223C62.3846 117.845 63.0551 117.513 63.7462 117.229C64.0831 117.888 64.3746 118.569 64.6188 119.268C65.3809 121.286 66.2442 123.573 68.3673 123.953C68.5429 123.984 68.721 124 68.8994 124H68.9004C70.7368 124 72.0981 122.424 73.415 120.9C73.9005 120.306 74.4301 119.749 74.9995 119.234C75.569 119.749 76.0986 120.307 76.584 120.901C77.9004 122.425 79.2627 124 81.0996 124C81.2778 124 81.4555 123.984 81.6309 123.953C83.7559 123.573 84.6191 121.285 85.3818 119.267C85.6251 118.569 85.9161 117.889 86.2529 117.231C86.9449 117.514 87.6158 117.846 88.2607 118.224C89.507 119.071 90.9416 119.601 92.4395 119.767C93.0182 119.774 93.588 119.624 94.088 119.332C95.9288 118.245 95.9542 115.814 95.9757 113.668C95.9642 112.918 96.0053 112.169 96.0987 111.425C96.1329 111.424 96.17 111.424 96.211 111.424C96.9147 111.455 97.6155 111.534 98.3087 111.659C99.2019 111.82 100.106 111.914 101.013 111.941C101.6 111.98 102.188 111.888 102.734 111.673C103.281 111.457 103.774 111.122 104.176 110.693C105.53 109.05 104.734 106.766 104.032 104.75C103.764 104.041 103.548 103.314 103.385 102.574C104.088 102.348 104.806 102.171 105.533 102.044C107.634 101.625 110.016 101.149 110.741 99.1183C111.452 97.1251 109.939 95.2569 108.603 93.6085C108.106 93.0281 107.652 92.4119 107.246 91.7647C107.827 91.3159 108.437 90.908 109.074 90.544C110.914 89.4278 113 88.1642 113 86.0001C113 83.8361 110.914 82.5724 109.074 81.4562C108.437 81.0919 107.826 80.6841 107.245 80.2355C107.651 79.5891 108.105 78.9735 108.602 78.3937C109.938 76.7462 111.452 74.878 110.74 72.8819C110.016 70.8526 107.634 70.3761 105.533 69.9571C104.806 69.8306 104.088 69.6534 103.385 69.4269C103.548 68.6873 103.764 67.9605 104.032 67.2522C104.735 65.2356 105.531 62.9493 104.177 61.3087C103.774 60.8795 103.282 60.5449 102.734 60.3289C102.187 60.113 101.599 60.021 101.012 60.0597C100.105 60.087 99.2008 60.1813 98.3076 60.342C97.615 60.4667 96.9149 60.5453 96.2119 60.5773C96.1709 60.5773 96.1329 60.5763 96.0986 60.5754C96.0057 59.8314 95.9649 59.0818 95.9766 58.3321C95.9542 56.1886 95.9298 53.7589 94.088 52.6681C93.5884 52.3774 93.0194 52.2276 92.4415 52.2345C90.9431 52.4009 89.508 52.9305 88.2608 53.7775C87.6157 54.1554 86.9448 54.4873 86.253 54.7707C85.9162 54.1128 85.6251 53.4325 85.3819 52.7346C84.6192 50.715 83.7559 48.4269 81.6309 48.0471C81.4556 48.0157 81.2778 48 81.0996 48C79.2627 48 77.9014 49.5752 76.584 51.0996C76.0987 51.6945 75.569 52.2517 74.9996 52.7666C74.43 52.2518 73.9003 51.6946 73.415 51.0996C72.0981 49.5762 70.7363 48 68.8989 48C68.7208 48 68.5431 48.0156 68.3677 48.0469C66.2441 48.4268 65.3809 50.7139 64.6187 52.7324C64.3753 53.4306 64.0841 54.1113 63.7471 54.7695C63.0547 54.4874 62.3835 54.1558 61.7388 53.7773C60.4919 52.9305 59.0571 52.4008 57.5591 52.2344C56.9797 52.2276 56.4093 52.3781 55.9087 52.6699C54.0698 53.7588 54.0449 56.1885 54.0234 58.333C54.035 59.0824 53.994 59.8316 53.9009 60.5752C53.8672 60.5762 53.8296 60.5771 53.7881 60.5771C53.0848 60.5451 52.3843 60.4665 51.6914 60.3418C50.7982 60.1812 49.8944 60.0869 48.9873 60.0596C48.4003 60.0209 47.812 60.1128 47.2648 60.3288C46.7176 60.5447 46.2251 60.8794 45.8228 61.3086C44.4707 62.9502 45.2656 65.2344 45.9668 67.25C46.2348 67.9591 46.4513 68.6865 46.6147 69.4268V69.4268ZM49.7446 65.9355C49.5601 65.4053 49.2881 64.624 49.1577 64.0635C49.8039 64.1068 50.4473 64.184 51.0854 64.2949C51.9781 64.4555 52.8815 64.5498 53.7881 64.5771C54.7931 64.6385 55.7857 64.3289 56.5776 63.707C57.9814 62.5029 58.0029 60.4033 58.0234 58.373C58.0288 57.8096 58.0371 56.9824 58.104 56.4072C58.6255 56.6289 59.3281 57.0166 59.8076 57.2813C61.0657 58.1287 62.5091 58.6609 64.0162 58.833C64.4148 58.8354 64.8107 58.7667 65.1851 58.6299C66.9097 57.9902 67.6475 56.0352 68.3613 54.1455C68.5605 53.6172 68.8525 52.8428 69.1138 52.3242C69.521 52.7119 70.0361 53.3076 70.3882 53.7148C71.73 55.2676 73.1172 56.873 74.999 56.873C76.8818 56.873 78.2695 55.2676 79.6113 53.7148C79.9629 53.3066 80.4785 52.7109 80.8857 52.3232C81.1465 52.8428 81.4395 53.6182 81.6387 54.1465C82.3525 56.0361 83.0898 57.9902 84.8125 58.6299C85.1873 58.7667 85.5835 58.8355 85.9824 58.833C87.4895 58.6608 88.9331 58.1286 90.1914 57.2813C90.6719 57.0166 91.376 56.6279 91.8955 56.4063C91.9619 56.9814 91.9707 57.8096 91.9766 58.3721C91.9971 60.4033 92.0186 62.5029 93.4238 63.709C94.2156 64.3297 95.2076 64.6386 96.2118 64.5771C97.118 64.5499 98.0209 64.4555 98.9131 64.2949C99.5518 64.1841 100.196 64.1068 100.843 64.0635C100.712 64.624 100.44 65.4053 100.255 65.9365C99.585 67.8605 98.8926 69.8496 99.8105 71.4639C100.724 73.0752 102.77 73.4834 104.749 73.8789C105.304 73.9902 106.123 74.1532 106.672 74.328C106.361 74.8056 105.845 75.4414 105.495 75.8739C104.209 77.4599 102.879 79.1006 103.194 80.9453C103.506 82.7588 105.282 83.8359 107.001 84.877C107.592 85.221 108.164 85.5959 108.716 86C108.164 86.4041 107.592 86.7789 107.001 87.123C105.282 88.1641 103.506 89.2412 103.194 91.0547C102.879 92.8994 104.208 94.54 105.495 96.127C105.845 96.5586 106.36 97.1953 106.671 97.6738C106.122 97.8477 105.304 98.0107 104.749 98.1221C102.771 98.5176 100.724 98.9258 99.8115 100.535C98.8926 102.152 99.585 104.142 100.255 106.065C100.439 106.596 100.712 107.377 100.843 107.938C100.196 107.894 99.5525 107.816 98.9141 107.705C98.0212 107.545 97.1177 107.451 96.2109 107.424C95.2062 107.362 94.2137 107.671 93.4219 108.293C92.0186 109.497 91.9971 111.597 91.9766 113.627C91.9707 114.19 91.9619 115.019 91.8945 115.594C91.374 115.372 90.6719 114.984 90.1924 114.721C88.9345 113.873 87.4907 113.34 85.9834 113.168C85.5838 113.165 85.1869 113.234 84.8115 113.371C83.0898 114.012 82.3525 115.965 81.6396 117.853C81.4395 118.382 81.1465 119.158 80.8857 119.678C80.4785 119.29 79.9629 118.693 79.6104 118.286C78.2686 116.733 76.8818 115.128 74.999 115.128C73.1172 115.128 71.73 116.733 70.3887 118.285C70.0361 118.692 69.521 119.289 69.1138 119.677C68.8525 119.157 68.5601 118.383 68.3608 117.855C67.6475 115.966 66.9102 114.012 65.187 113.371C64.8117 113.234 64.415 113.166 64.0156 113.168C62.5089 113.34 61.0657 113.872 59.8081 114.72C59.3276 114.985 58.623 115.373 58.104 115.596C58.0371 115.02 58.0288 114.192 58.0229 113.629C58.0024 111.598 57.981 109.497 56.5757 108.292C55.7842 107.671 54.7923 107.362 53.7881 107.424C52.8815 107.451 51.9781 107.545 51.0854 107.705C50.447 107.816 49.8032 107.894 49.1567 107.937C49.2876 107.377 49.5596 106.596 49.7441 106.065C50.4141 104.142 51.1064 102.153 50.1885 100.537C49.2754 98.9257 47.229 98.5175 45.2505 98.1221C44.6958 98.0107 43.8774 97.8476 43.3286 97.6738C43.6392 97.1953 44.1548 96.5586 44.5054 96.127C45.7915 94.54 47.1216 92.8984 46.8047 91.0557C46.4946 89.2422 44.7178 88.165 42.999 87.123C42.4083 86.7787 41.8359 86.4038 41.2842 86C41.8359 85.5961 42.4083 85.2213 42.999 84.877C44.7178 83.8349 46.4946 82.7578 46.8042 80.9463C47.1216 79.1006 45.791 77.4599 44.5044 75.873C44.1543 75.4414 43.6382 74.8057 43.3281 74.3271C43.8771 74.1532 44.6953 73.9902 45.25 73.8789C47.229 73.4834 49.2754 73.0752 50.1875 71.4657C51.1064 69.8486 50.4141 67.8594 49.7446 65.9355ZM68.6089 33.7236L68.1353 36.4248C68.0349 36.8793 68.0363 37.3505 68.1397 37.8043C68.243 38.2582 68.4456 38.6836 68.733 39.0498C69.1968 39.554 69.8211 39.8819 70.4995 39.9775C71.1779 40.0731 71.8685 39.9305 72.4537 39.5742L75 38.2686L77.5439 39.5742C78.0483 39.845 78.6102 39.991 79.1826 40C79.5785 40.006 79.9709 39.9239 80.3311 39.7595C80.6914 39.5952 81.0106 39.3527 81.2656 39.0498C81.5532 38.6841 81.7562 38.2592 81.86 37.8057C81.9639 37.3521 81.966 36.8812 81.8662 36.4268L81.3906 33.7227L83.4063 31.8037C83.8688 31.4462 84.2096 30.9546 84.3824 30.3961C84.5552 29.8377 84.5514 29.2395 84.3716 28.6832C84.1919 28.127 83.8449 27.6398 83.378 27.288C82.911 26.9363 82.347 26.7371 81.7627 26.7178L78.9316 26.3164L77.6748 23.8232C77.464 23.2855 77.0959 22.8239 76.6186 22.4986C76.1413 22.1734 75.577 21.9996 74.9994 22C74.4219 22.0005 73.8578 22.175 73.381 22.501C72.9042 22.8269 72.5368 23.2891 72.3267 23.8271L71.0688 26.3164L68.2374 26.7178C67.6564 26.759 67.1001 26.9682 66.636 27.32C66.1719 27.6718 65.8201 28.151 65.6235 28.6992C65.4663 29.2535 65.4737 29.8415 65.6448 30.3917C65.8158 30.9419 66.1431 31.4305 66.5869 31.7979L68.6089 33.7236ZM73.6978 29.9844L75.001 27.4053L76.3008 29.9844L79.0996 30.3808L77.0801 32.3047L77.5693 35.0908L75.0021 33.7724L72.4302 35.0908L72.9194 32.3037L70.8994 30.3809L73.6978 29.9844ZM17.9536 93.7822L20.5005 92.4766L23.0435 93.7822C23.5479 94.0529 24.1098 94.1989 24.6821 94.208C25.0781 94.214 25.4705 94.1319 25.8309 93.9675C26.1912 93.8032 26.5105 93.5608 26.7656 93.2578C27.0531 92.892 27.2561 92.4671 27.3599 92.0136C27.4638 91.5601 27.4659 91.0893 27.3663 90.6348L26.8906 87.9307L28.9058 86.0117C29.3684 85.6543 29.7093 85.1628 29.8822 84.6044C30.0551 84.046 30.0514 83.4478 29.8718 82.8916C29.6921 82.3353 29.3452 81.848 28.8784 81.4962C28.4115 81.1444 27.8475 80.9452 27.2633 80.9258L24.4317 80.5245L23.1749 78.0314C22.964 77.4936 22.5959 77.032 22.1187 76.7067C21.6414 76.3814 21.0771 76.2077 20.4995 76.2081C19.9219 76.2085 19.3579 76.3831 18.8811 76.709C18.4042 77.035 18.0368 77.4972 17.8267 78.0352L16.5689 80.5245L13.7374 80.9258C13.1565 80.967 12.6 81.1762 12.1359 81.528C11.6718 81.8798 11.3201 82.359 11.1236 82.9072C10.9664 83.4615 10.9738 84.0496 11.1448 84.5997C11.3159 85.1499 11.6432 85.6385 12.087 86.0059L14.109 87.9316L13.6354 90.6329C13.5349 91.0874 13.5364 91.5585 13.6398 92.0124C13.7431 92.4663 13.9457 92.8916 14.233 93.2579C14.697 93.7618 15.3213 94.0895 15.9996 94.1851C16.678 94.2807 17.3685 94.1383 17.9536 93.7822V93.7822ZM19.1978 84.1924L20.501 81.6133L21.8008 84.1924L24.5996 84.5889L22.5801 86.5127L23.0698 89.2988L20.5015 87.9805L17.9302 89.2988L18.4194 86.5117L16.3994 84.5889L19.1978 84.1924ZM120.123 82.9072C119.966 83.4615 119.974 84.0495 120.145 84.5996C120.316 85.1498 120.643 85.6383 121.087 86.0059L123.108 87.9316L122.636 90.6318C122.535 91.0862 122.536 91.5573 122.64 92.0112C122.743 92.4651 122.945 92.8905 123.232 93.2568C123.696 93.7623 124.32 94.0911 124.999 94.1869C125.678 94.2828 126.369 94.1397 126.954 93.7822L129.5 92.4766L132.044 93.7822C132.548 94.0531 133.11 94.1991 133.683 94.208C134.078 94.214 134.471 94.1319 134.831 93.9675C135.191 93.8032 135.511 93.5608 135.766 93.2578C136.053 92.8921 136.256 92.4672 136.36 92.0137C136.464 91.5601 136.466 91.0892 136.366 90.6348L135.891 87.9307L137.906 86.0117C138.369 85.6541 138.71 85.1626 138.882 84.6041C139.055 84.0456 139.051 83.4475 138.872 82.8912C138.692 82.335 138.345 81.8478 137.878 81.496C137.411 81.1443 136.847 80.9452 136.263 80.9258L133.432 80.5245L132.175 78.0314C131.964 77.4936 131.596 77.032 131.118 76.7067C130.641 76.3814 130.077 76.2076 129.499 76.2081C128.922 76.2085 128.357 76.3831 127.881 76.709C127.404 77.035 127.036 77.4972 126.826 78.0352L125.568 80.5245L122.736 80.9258C122.156 80.9673 121.599 81.1766 121.135 81.5284C120.671 81.8802 120.32 82.3592 120.123 82.9072V82.9072ZM128.197 84.1924L129.501 81.6133L130.801 84.1924L133.6 84.5889L131.58 86.5127L132.069 89.2988L129.502 87.9805L126.93 89.2988L127.419 86.5117L125.399 84.5889L128.197 84.1924ZM122.165 119.919C121.899 119.423 121.496 119.015 121.005 118.741C120.514 118.468 119.954 118.341 119.393 118.376L116.484 118.445L114.91 116.201C114.645 115.77 114.277 115.412 113.838 115.16C113.4 114.908 112.905 114.769 112.399 114.757C111.753 114.78 111.132 115.015 110.632 115.425C110.131 115.834 109.779 116.397 109.629 117.026L108.751 119.751L106.029 120.626C105.467 120.767 104.957 121.066 104.56 121.488C104.163 121.909 103.895 122.436 103.788 123.006C103.72 123.574 103.817 124.149 104.067 124.664C104.317 125.179 104.71 125.61 105.198 125.908L107.447 127.484L107.379 130.268C107.347 130.7 107.404 131.134 107.547 131.543C107.691 131.953 107.917 132.328 108.212 132.646C108.458 132.899 108.753 133.1 109.079 133.237C109.405 133.373 109.755 133.443 110.108 133.44C110.847 133.421 111.559 133.161 112.136 132.7L114.422 130.982L117.075 131.856C117.674 132.094 118.333 132.133 118.955 131.966C119.577 131.8 120.128 131.437 120.528 130.933C120.812 130.519 120.991 130.042 121.047 129.543C121.104 129.044 121.038 128.539 120.853 128.072L119.982 125.422L121.7 123.137C122.077 122.701 122.321 122.166 122.403 121.596C122.486 121.026 122.403 120.444 122.165 119.919V119.919ZM115.531 124.688L116.433 127.434L113.689 126.529L111.43 128.227L111.498 125.44L109.181 123.815L111.929 122.931L112.815 120.18L114.44 122.496L117.228 122.429L115.531 124.688ZM27.4165 48.126L29.665 49.7021L29.5977 52.4844C29.5651 52.9168 29.6222 53.3512 29.7653 53.7606C29.9084 54.1699 30.1344 54.5453 30.4292 54.8633C30.6753 55.1171 30.9702 55.3185 31.2963 55.4553C31.6223 55.5921 31.9726 55.6615 32.3262 55.6592C33.0649 55.6397 33.777 55.3798 34.3545 54.9189L36.6406 53.2002L39.2915 54.0742C39.8901 54.3122 40.5495 54.351 41.1718 54.1848C41.7942 54.0186 42.3464 53.6562 42.7466 53.1514C43.0308 52.7373 43.209 52.2598 43.2656 51.7607C43.3222 51.2617 43.2555 50.7564 43.0713 50.2891L42.2007 47.6406L43.9199 45.3545C44.2963 44.9184 44.54 44.3836 44.6219 43.8133C44.7038 43.243 44.6207 42.6612 44.3823 42.1367C44.116 41.6411 43.7132 41.2323 43.2215 40.9588C42.7298 40.6853 42.1699 40.5586 41.6084 40.5939L38.7026 40.6641L37.1279 38.4189C36.863 37.988 36.4947 37.6302 36.0563 37.3779C35.6179 37.1257 35.1233 36.9871 34.6177 36.9747C33.9711 36.9981 33.35 37.2328 32.8495 37.6428C32.3491 38.0529 31.9968 38.6157 31.8467 39.2451L30.9692 41.9697L28.249 42.8447C27.6866 42.9844 27.1762 43.2829 26.7786 43.7045C26.3809 44.1261 26.1129 44.6531 26.0063 45.2227C25.9383 45.7909 26.0351 46.3667 26.2851 46.8814C26.5351 47.3962 26.9279 47.8282 27.4165 48.126V48.126ZM34.1479 45.1494L35.0342 42.3994L36.6587 44.7148L39.4473 44.6475L37.7485 46.9063L38.6504 49.6514L35.9082 48.7471L33.6479 50.4453L33.7158 47.6572L31.4 46.0332L34.1479 45.1494ZM46.2139 123.009C46.1079 122.439 45.8404 121.912 45.4432 121.49C45.046 121.068 44.5359 120.769 43.9736 120.629L41.249 119.751L40.3735 117.029C40.2235 116.4 39.871 115.836 39.3701 115.426C38.8692 115.016 38.2476 114.782 37.6006 114.759C37.0956 114.771 36.6017 114.909 36.1636 115.16C35.7255 115.412 35.3571 115.768 35.0918 116.198L33.5156 118.447L30.7319 118.379L30.6089 118.377C30.0475 118.342 29.4878 118.468 28.9962 118.742C28.5047 119.015 28.102 119.424 27.8359 119.92C27.5976 120.444 27.5147 121.026 27.5969 121.596C27.6792 122.166 27.9231 122.7 28.2998 123.136L30.0176 125.422L29.1431 128.075C28.9606 128.543 28.8955 129.049 28.9534 129.548C29.0114 130.047 29.1907 130.525 29.4756 130.938C29.8769 131.441 30.4291 131.801 31.0506 131.966C31.6722 132.131 32.3302 132.091 32.9277 131.853L35.5781 130.982L37.8633 132.7C38.4412 133.162 39.1538 133.422 39.8931 133.441C40.2466 133.444 40.5968 133.374 40.9228 133.237C41.2487 133.101 41.5436 132.899 41.7896 132.646C42.0838 132.329 42.3096 131.955 42.4529 131.548C42.5962 131.14 42.654 130.707 42.6226 130.276L42.5547 127.484L44.7988 125.91C45.2881 125.613 45.6816 125.182 45.9325 124.667C46.1834 124.153 46.2811 123.577 46.2139 123.009V123.009ZM38.5039 125.44L38.5713 128.228L36.3125 126.531L33.5625 127.445L34.4707 124.69L32.7734 122.43L35.5605 122.498L37.1855 120.181L38.0693 122.929L40.8198 123.815L38.5039 125.44ZM107.8 47.6406L106.926 50.291C106.743 50.7591 106.678 51.265 106.735 51.7643C106.793 52.2636 106.972 52.7411 107.257 53.1553C107.658 53.6588 108.21 54.0198 108.832 54.1848C109.454 54.3498 110.112 54.31 110.71 54.0713L113.359 53.2002L115.647 54.9209C116.224 55.3806 116.936 55.6397 117.674 55.6592C118.027 55.6613 118.377 55.592 118.703 55.4554C119.029 55.3188 119.324 55.1177 119.57 54.8642C119.865 54.5477 120.091 54.1739 120.234 53.7661C120.378 53.3582 120.436 52.9252 120.404 52.4941L120.336 49.7021L122.581 48.1278C123.07 47.831 123.464 47.3997 123.715 46.8855C123.965 46.3712 124.063 45.7957 123.996 45.2275C123.89 44.6576 123.622 44.1302 123.225 43.7081C122.828 43.2861 122.317 42.987 121.755 42.8466L119.03 41.9697L118.155 39.248C118.006 38.618 117.653 38.0545 117.153 37.6441C116.652 37.2338 116.03 36.9992 115.383 36.9766C114.878 36.9889 114.384 37.127 113.946 37.3783C113.508 37.6297 113.139 37.9863 112.874 38.416L111.298 40.665L108.516 40.5977L108.389 40.5957C107.827 40.5605 107.268 40.6872 106.777 40.9608C106.285 41.2343 105.883 41.6431 105.617 42.1387C105.379 42.663 105.296 43.2445 105.378 43.8145C105.46 44.3845 105.704 44.9189 106.081 45.3545L107.8 47.6406ZM113.343 44.7158L114.967 42.3994L115.851 45.1474L118.601 46.0341L116.285 47.6581L116.353 50.4472L114.094 48.7489L111.345 49.663L112.253 46.9081L110.555 44.6483L113.343 44.7158ZM160 2C159.407 2 158.827 2.17595 158.333 2.50559C157.84 2.83524 157.455 3.30377 157.228 3.85195C157.001 4.40013 156.942 5.00333 157.058 5.58527C157.173 6.16721 157.459 6.70176 157.879 7.12132C158.298 7.54088 158.833 7.8266 159.415 7.94236C159.997 8.05811 160.6 7.9987 161.148 7.77164C161.696 7.54458 162.165 7.16006 162.494 6.66671C162.824 6.17336 163 5.59334 163 5C162.999 4.20463 162.683 3.4421 162.12 2.87969C161.558 2.31727 160.795 2.00091 160 2ZM160 6.5C159.703 6.5 159.413 6.41203 159.167 6.24721C158.92 6.08238 158.728 5.84812 158.614 5.57403C158.501 5.29994 158.471 4.99834 158.529 4.70737C158.587 4.41639 158.73 4.14912 158.939 3.93934C159.149 3.72956 159.416 3.5867 159.707 3.52882C159.998 3.47095 160.3 3.50065 160.574 3.61418C160.848 3.72771 161.082 3.91997 161.247 4.16665C161.412 4.41332 161.5 4.70333 161.5 5C161.5 5.39771 161.341 5.77901 161.06 6.06023C160.779 6.34145 160.398 6.49961 160 6.5V6.5ZM69 8C69.5933 8 70.1733 7.82405 70.6667 7.49441C71.16 7.16477 71.5446 6.69623 71.7716 6.14805C71.9987 5.59987 72.0581 4.99667 71.9423 4.41473C71.8266 3.83279 71.5409 3.29824 71.1213 2.87868C70.7017 2.45912 70.1672 2.1734 69.5853 2.05764C69.0033 1.94189 68.4001 2.0013 67.8519 2.22836C67.3038 2.45543 66.8352 2.83994 66.5056 3.33329C66.1759 3.82664 66 4.40666 66 5C66.0009 5.79537 66.3172 6.5579 66.8797 7.12032C67.4421 7.68273 68.2046 7.99909 69 8ZM69 3.5C69.2966 3.5 69.5867 3.58797 69.8333 3.7528C70.08 3.91762 70.2723 4.15189 70.3858 4.42598C70.4993 4.70006 70.529 5.00166 70.4712 5.29264C70.4133 5.58361 70.2704 5.85088 70.0606 6.06066C69.8509 6.27044 69.5836 6.4133 69.2926 6.47118C69.0016 6.52906 68.7 6.49935 68.4259 6.38582C68.1519 6.27229 67.9176 6.08003 67.7528 5.83336C67.5879 5.58668 67.5 5.29667 67.5 5C67.5004 4.6023 67.6585 4.22099 67.9398 3.93977C68.221 3.65855 68.6023 3.50039 69 3.5ZM158 30C158 29.6044 157.883 29.2178 157.663 28.8889C157.443 28.56 157.131 28.3036 156.765 28.1522C156.4 28.0009 155.998 27.9613 155.61 28.0384C155.222 28.1156 154.865 28.3061 154.586 28.5858C154.306 28.8655 154.116 29.2219 154.038 29.6098C153.961 29.9978 154.001 30.3999 154.152 30.7654C154.304 31.1308 154.56 31.4432 154.889 31.6629C155.218 31.8827 155.604 32 156 32C156.53 31.9994 157.039 31.7885 157.414 31.4135C157.788 31.0386 157.999 30.5302 158 30ZM155 30C155 29.8022 155.059 29.6089 155.169 29.4444C155.278 29.28 155.435 29.1518 155.617 29.0761C155.8 29.0004 156.001 28.9806 156.195 29.0192C156.389 29.0578 156.567 29.153 156.707 29.2929C156.847 29.4327 156.942 29.6109 156.981 29.8049C157.019 29.9989 157 30.2 156.924 30.3827C156.848 30.5654 156.72 30.7216 156.556 30.8315C156.391 30.9414 156.198 31 156 31C155.735 30.9997 155.481 30.8943 155.293 30.7068C155.106 30.5193 155 30.2651 155 30V30ZM116 5C116.396 5 116.782 4.8827 117.111 4.66294C117.44 4.44318 117.696 4.13082 117.848 3.76537C117.999 3.39992 118.039 2.99778 117.962 2.60982C117.884 2.22186 117.694 1.86549 117.414 1.58579C117.134 1.30608 116.778 1.1156 116.39 1.03843C116.002 0.96126 115.6 1.00087 115.235 1.15224C114.869 1.30362 114.557 1.55996 114.337 1.88886C114.117 2.21776 114 2.60444 114 3C114.001 3.53025 114.211 4.0386 114.586 4.41355C114.961 4.78849 115.47 4.99939 116 5V5ZM116 2C116.198 2 116.391 2.05865 116.556 2.16853C116.72 2.27841 116.848 2.43459 116.924 2.61732C117 2.80004 117.019 3.00111 116.981 3.19509C116.942 3.38907 116.847 3.56726 116.707 3.70711C116.567 3.84696 116.389 3.9422 116.195 3.98079C116.001 4.01937 115.8 3.99957 115.617 3.92388C115.435 3.84819 115.278 3.72002 115.169 3.55557C115.059 3.39112 115 3.19778 115 3C115 2.73487 115.106 2.48067 115.293 2.29319C115.481 2.10571 115.735 2.00027 116 2ZM50 30C50.3955 30 50.7822 29.8827 51.1111 29.6629C51.44 29.4432 51.6964 29.1308 51.8477 28.7654C51.9991 28.3999 52.0387 27.9978 51.9615 27.6098C51.8844 27.2219 51.6939 26.8655 51.4142 26.5858C51.1345 26.3061 50.7781 26.1156 50.3902 26.0384C50.0022 25.9613 49.6001 26.0009 49.2346 26.1522C48.8692 26.3036 48.5568 26.56 48.337 26.8889C48.1173 27.2178 48 27.6044 48 28C48.0006 28.5302 48.2115 29.0386 48.5864 29.4135C48.9614 29.7885 49.4697 29.9994 50 30V30ZM50 27C50.1978 27 50.3911 27.0586 50.5555 27.1685C50.72 27.2784 50.8482 27.4346 50.9239 27.6173C50.9995 27.8 51.0193 28.0011 50.9808 28.1951C50.9422 28.3891 50.8469 28.5673 50.7071 28.7071C50.5672 28.847 50.389 28.9422 50.1951 28.9808C50.0011 29.0194 49.8 28.9996 49.6173 28.9239C49.4346 28.8482 49.2784 28.72 49.1685 28.5556C49.0586 28.3911 49 28.1978 49 28C49.0002 27.7349 49.1057 27.4807 49.2932 27.2932C49.4806 27.1057 49.7348 27.0003 50 27V27Z" fill="white"/>
<path d="M2 150C3.10457 150 4 149.105 4 148C4 146.895 3.10457 146 2 146C0.89543 146 0 146.895 0 148C0 149.105 0.89543 150 2 150Z" fill="white"/>
<path d="M11 146H8C7.46957 146 6.96086 146.211 6.58579 146.586C6.21071 146.961 6 147.47 6 148C6 148.53 6.21071 149.039 6.58579 149.414C6.96086 149.789 7.46957 150 8 150H11C11.5304 150 12.0391 149.789 12.4142 149.414C12.7893 149.039 13 148.53 13 148C13 147.47 12.7893 146.961 12.4142 146.586C12.0391 146.211 11.5304 146 11 146ZM160 146H157C156.47 146 155.961 146.211 155.586 146.586C155.211 146.961 155 147.47 155 148C155 148.53 155.211 149.039 155.586 149.414C155.961 149.789 156.47 150 157 150H160C160.53 150 161.039 149.789 161.414 149.414C161.789 149.039 162 148.53 162 148C162 147.47 161.789 146.961 161.414 146.586C161.039 146.211 160.53 146 160 146Z" fill="white"/>
<path d="M166 150C167.105 150 168 149.105 168 148C168 146.895 167.105 146 166 146C164.895 146 164 146.895 164 148C164 149.105 164.895 150 166 150Z" fill="white"/>
<path d="M150.721 146H81.7912L81.3906 143.723L83.4064 141.804C83.8688 141.446 84.2097 140.955 84.3824 140.396C84.5552 139.838 84.5514 139.239 84.3717 138.683C84.1919 138.127 83.8449 137.64 83.378 137.288C82.9111 136.936 82.347 136.737 81.7628 136.718L78.9316 136.316L77.6749 133.823C77.464 133.285 77.0959 132.824 76.6186 132.499C76.1413 132.173 75.577 132 74.9995 132C74.4219 132 73.8579 132.175 73.3811 132.501C72.9042 132.827 72.5368 133.289 72.3267 133.827L71.0689 136.316L68.2374 136.718C67.6565 136.759 67.1001 136.968 66.636 137.32C66.1719 137.672 65.8201 138.151 65.6236 138.699C65.4664 139.253 65.4738 139.842 65.6448 140.392C65.8159 140.942 66.1432 141.43 66.5869 141.798L68.6089 143.724L68.2098 146H17.2787C16.9942 145.963 16.705 145.987 16.4305 146.07C16.1559 146.154 15.9024 146.295 15.6867 146.484C15.4711 146.673 15.2983 146.907 15.18 147.168C15.0616 147.429 15.0004 147.713 15.0004 148C15.0004 148.287 15.0616 148.571 15.18 148.832C15.2983 149.093 15.4711 149.327 15.6867 149.516C15.9024 149.705 16.1559 149.846 16.4305 149.93C16.705 150.013 16.9942 150.037 17.2787 150H150.721C151.006 150.037 151.295 150.013 151.57 149.93C151.844 149.846 152.098 149.705 152.313 149.516C152.529 149.327 152.702 149.093 152.82 148.832C152.938 148.571 153 148.287 153 148C153 147.713 152.938 147.429 152.82 147.168C152.702 146.907 152.529 146.673 152.313 146.484C152.098 146.295 151.844 146.154 151.57 146.07C151.295 145.987 151.006 145.963 150.721 146ZM77.5693 145.091L75.0021 143.772L72.4302 145.091L72.9194 142.304L70.8994 140.381L73.6978 139.984L75.001 137.405L76.3008 139.984L79.0997 140.381L77.0801 142.305L77.5693 145.091Z" fill="white"/>
<path d="M64.2446 101.779C65.8734 103.046 67.7456 103.964 69.7446 104.477L69.7529 105.056C69.7673 106.107 70.1951 107.11 70.9436 107.848C71.6921 108.586 72.7012 109 73.7524 109H73.8115L77.3087 108.948C78.3688 108.932 79.3792 108.496 80.118 107.736C80.8569 106.975 81.2636 105.953 81.249 104.893L81.2402 104.264C83.1335 103.701 84.8814 102.733 86.3624 101.427C87.5363 100.302 88.4653 98.947 89.0908 97.4464C89.7164 95.9459 90.0252 94.3322 89.9978 92.7067C89.9704 91.0812 89.6074 89.4789 88.9315 88.0003C88.2557 86.5217 87.2816 85.1987 86.0704 84.1143C86.0566 84.1035 86.043 84.0918 86.0304 84.0801C86.7507 84.0192 87.441 83.7642 88.0279 83.3422C88.6148 82.9202 89.0763 82.347 89.3634 81.6836L89.4072 81.582C89.6223 81.0849 89.7342 80.5494 89.7363 80.0078C89.7869 78.3834 89.5084 76.7656 88.9175 75.2516C88.3266 73.7377 87.4356 72.3589 86.298 71.1982C84.8605 69.7801 83.11 68.7194 81.1876 68.1016L81.172 66.9443C81.1571 65.8931 80.7292 64.8901 79.9807 64.152C79.2322 63.4139 78.2232 63.0001 77.172 63H77.1105L73.6124 63.0537C72.5532 63.0701 71.5437 63.506 70.8054 64.2657C70.0671 65.0255 69.6604 66.0471 69.6744 67.1064L69.6872 68.0859C67.7771 68.6676 66.0198 69.6655 64.5417 71.0078C63.3582 72.0867 62.4224 73.409 61.7984 74.8838C61.1744 76.3587 60.8771 77.9511 60.9269 79.5518C60.8885 81.162 61.2062 82.7609 61.8574 84.2342C62.5086 85.7074 63.4772 87.0186 64.6939 88.0742L64.0016 88.0859C63.2892 88.097 62.5927 88.2982 61.9841 88.6687C61.3755 89.0392 60.877 89.5656 60.54 90.1934L60.4761 90.3125C60.1682 90.886 60.005 91.5259 60.0005 92.1768C59.9653 97.3232 62.2891 100.239 64.2446 101.779ZM64.0645 92.085L70.317 91.9863C70.2579 92.6586 70.3558 93.3355 70.6029 93.9635C70.8499 94.5915 71.2394 95.1536 71.7407 95.6055C72.7416 96.325 73.955 96.6878 75.1865 96.6357C75.2355 96.6357 75.2833 96.6357 75.332 96.6348C76.4925 96.7059 77.6386 96.3483 78.5527 95.6299C78.9093 95.2947 79.1876 94.8849 79.3677 94.4298C79.5478 93.9748 79.6253 93.4856 79.5947 92.9971C79.6098 92.5125 79.5227 92.0302 79.3391 91.5815C79.1556 91.1328 78.8797 90.7277 78.5294 90.3926C77.4286 89.5378 76.1693 88.9098 74.8242 88.5449C72.153 87.8972 69.6331 86.7364 67.4049 85.127C66.5892 84.4408 65.9417 83.5768 65.5121 82.6013C65.0824 81.6259 64.8821 80.565 64.9263 79.5C64.8821 78.4607 65.0675 77.4244 65.4695 76.4649C65.8715 75.5055 66.4802 74.6465 67.2521 73.9492C69.0686 72.3929 71.3427 71.4711 73.7301 71.3232L73.6739 67.0537L77.1719 67L77.2324 71.3262C79.5634 71.4796 81.7692 72.4359 83.4747 74.0322C84.2402 74.8176 84.8361 75.7521 85.2251 76.7776C85.6142 77.803 85.7882 78.8976 85.7363 79.9932L85.6925 80.0947L79.421 80.1914C79.4866 78.9785 79.0803 77.7872 78.2872 76.8672C77.8979 76.4843 77.4329 76.1869 76.922 75.994C76.4111 75.8011 75.8656 75.717 75.3204 75.7471C75.2882 75.7471 75.2559 75.748 75.2237 75.748C74.6829 75.7058 74.1393 75.7752 73.6264 75.9518C73.1136 76.1283 72.6425 76.4083 72.2423 76.7744C71.6102 77.5056 71.2916 78.4565 71.3556 79.4209C71.3407 79.8759 71.4234 80.3287 71.598 80.7491C71.7726 81.1695 72.035 81.5478 72.3678 81.8584C73.5054 82.7125 74.7841 83.3603 76.1456 83.7725C78.8064 84.3896 81.3109 85.5499 83.5021 87.1807C84.3186 87.8785 84.9671 88.7515 85.3994 89.7347C85.8317 90.7179 86.0367 91.786 85.999 92.8594C86.0551 93.9046 85.8768 94.9492 85.4772 95.9167C85.0776 96.8842 84.4668 97.7501 83.6895 98.4512C81.852 99.9745 79.5769 100.873 77.1943 101.016L77.249 104.948L73.7524 105L73.6978 101.07C71.1768 100.995 68.7401 100.146 66.7192 98.6367C65.7857 97.8591 65.0518 96.8695 64.5789 95.7505C64.1059 94.6314 63.9076 93.4154 64.0005 92.2041L64.0645 92.085Z" fill="white"/>
<path d="M9.58299 23.0114L11.07 21.0564L10.131 20.5244L9.17699 22.7144H9.14499L8.17499 20.5394L7.21999 21.0874L8.69099 22.9964V23.0274L6.39099 22.7304V23.7944L8.70699 23.4974V23.5284L7.21999 25.4364L8.11199 26.0004L9.12999 23.7944H9.15999L10.099 25.9844L11.085 25.4214L9.58299 23.5434V23.5124L11.945 23.7944V22.7304L9.58299 23.0424V23.0114Z" fill="white"/>
<path d="M39.281 10.7689L40.137 9.64291L39.597 9.33691L39.047 10.5979H39.029L38.471 9.34491L37.92 9.66091L38.768 10.7599V10.7779L37.443 10.6069V11.2199L38.777 11.0489V11.0669L37.92 12.1659L38.434 12.4899L39.02 11.2199H39.038L39.578 12.4809L40.146 12.1569L39.281 11.0749V11.0569L40.641 11.2199V10.6069L39.281 10.7869V10.7689Z" fill="white"/>
<path d="M139 24.7129V23.6699L136.683 23.9769V23.9459L138.142 22.0279L137.221 21.5059L136.285 23.6539H136.253L135.302 21.5209L134.365 22.0589L135.808 23.9309V23.9619L133.552 23.6699V24.7129L135.823 24.4219V24.4529L134.365 26.3249L135.24 26.8779L136.238 24.7129H136.268L137.189 26.8619L138.156 26.3099L136.683 24.4679V24.4369L139 24.7129Z" fill="white"/>
<path d="M104.443 20.5864L105.701 18.9314L104.907 18.4814L104.099 20.3344H104.073L103.252 18.4944L102.444 18.9584L103.689 20.5734V20.5994L101.742 20.3484V21.2484L103.702 20.9964V21.0234L102.444 22.6384L103.198 23.1154L104.06 21.2484H104.085L104.88 23.1014L105.714 22.6254L104.443 21.0364V21.0094L106.442 21.2484V20.3484L104.443 20.6124V20.5864Z" fill="white"/>
<path d="M118.154 155H109.846C109.343 155.04 108.874 155.268 108.532 155.639C108.19 156.01 108 156.496 108 157C108 157.504 108.19 157.99 108.532 158.361C108.874 158.732 109.343 158.96 109.846 159H118.154C118.657 158.96 119.126 158.732 119.468 158.361C119.81 157.99 120 157.504 120 157C120 156.496 119.81 156.01 119.468 155.639C119.126 155.268 118.657 155.04 118.154 155ZM58.1539 155H49.8462C49.3434 155.04 48.8742 155.268 48.5321 155.639C48.19 156.01 48 156.496 48 157C48 157.504 48.19 157.99 48.5321 158.361C48.8742 158.732 49.3434 158.96 49.8462 159H58.1539C58.6567 158.96 59.1258 158.732 59.468 158.361C59.8101 157.99 60.0001 157.504 60.0001 157C60.0001 156.496 59.8101 156.01 59.468 155.639C59.1258 155.268 58.6567 155.04 58.1539 155V155ZM104 155H64C63.4696 155 62.9609 155.211 62.5858 155.586C62.2107 155.961 62 156.47 62 157C62 157.53 62.2107 158.039 62.5858 158.414C62.9609 158.789 63.4696 159 64 159H79.94V161H72C71.4696 161 70.9609 161.211 70.5858 161.586C70.2107 161.961 70 162.47 70 163C70 163.53 70.2107 164.039 70.5858 164.414C70.9609 164.789 71.4696 165 72 165H97C97.5305 165 98.0392 164.789 98.4142 164.414C98.7893 164.039 99 163.53 99 163C99 162.47 98.7893 161.961 98.4142 161.586C98.0392 161.211 97.5305 161 97 161H88.06V159H104C104.53 159 105.039 158.789 105.414 158.414C105.789 158.039 106 157.53 106 157C106 156.47 105.789 155.961 105.414 155.586C105.039 155.211 104.53 155 104 155Z" fill="white"/>
</svg>
